<svg width="8737" height="9707" viewBox="0 0 8737 9707" fill="none" xmlns="http://www.w3.org/2000/svg">
<path d="M8481 5888V256H289V5888H8481Z" stroke="#666666" stroke-width="512" stroke-linecap="round" stroke-linejoin="round"/>
<path d="M3457 6656L3617 6144H5153L5313 6656H6497V7680H2337V6656H3457Z" stroke="#666666" stroke-width="512" stroke-linecap="round" stroke-linejoin="round"/>
<g clip-path="url(#clip0_8_830)">
<path d="M1020 1734C1020 1530.31 1100.91 1334.97 1244.94 1190.94C1388.97 1046.91 1584.31 966 1788 966C1991.69 966 2187.03 1046.91 2331.06 1190.94C2475.09 1334.97 2556 1530.31 2556 1734C2556 1937.69 2475.09 2133.03 2331.06 2277.06C2187.03 2421.09 1991.69 2502 1788 2502C1584.31 2502 1388.97 2421.09 1244.94 2277.06C1100.91 2133.03 1020 1937.69 1020 1734ZM1980 2022C1980 1941.3 1930.5 1872.3 1860 1844.1V1230C1860 1190.1 1827.9 1158 1788 1158C1748.1 1158 1716 1190.1 1716 1230V1844.1C1645.5 1872.6 1596 1941.6 1596 2022C1596 2127.9 1682.1 2214 1788 2214C1893.9 2214 1980 2127.9 1980 2022ZM1452 1494C1477.46 1494 1501.88 1483.89 1519.88 1465.88C1537.89 1447.88 1548 1423.46 1548 1398C1548 1372.54 1537.89 1348.12 1519.88 1330.12C1501.88 1312.11 1477.46 1302 1452 1302C1426.54 1302 1402.12 1312.11 1384.12 1330.12C1366.11 1348.12 1356 1372.54 1356 1398C1356 1423.46 1366.11 1447.88 1384.12 1465.88C1402.12 1483.89 1426.54 1494 1452 1494ZM1404 1734C1404 1708.54 1393.89 1684.12 1375.88 1666.12C1357.88 1648.11 1333.46 1638 1308 1638C1282.54 1638 1258.12 1648.11 1240.12 1666.12C1222.11 1684.12 1212 1708.54 1212 1734C1212 1759.46 1222.11 1783.88 1240.12 1801.88C1258.12 1819.89 1282.54 1830 1308 1830C1333.46 1830 1357.88 1819.89 1375.88 1801.88C1393.89 1783.88 1404 1759.46 1404 1734ZM2268 1830C2293.46 1830 2317.88 1819.89 2335.88 1801.88C2353.89 1783.88 2364 1759.46 2364 1734C2364 1708.54 2353.89 1684.12 2335.88 1666.12C2317.88 1648.11 2293.46 1638 2268 1638C2242.54 1638 2218.12 1648.11 2200.12 1666.12C2182.11 1684.12 2172 1708.54 2172 1734C2172 1759.46 2182.11 1783.88 2200.12 1801.88C2218.12 1819.89 2242.54 1830 2268 1830ZM2220 1398C2220 1372.54 2209.89 1348.12 2191.88 1330.12C2173.88 1312.11 2149.46 1302 2124 1302C2098.54 1302 2074.12 1312.11 2056.12 1330.12C2038.11 1348.12 2028 1372.54 2028 1398C2028 1423.46 2038.11 1447.88 2056.12 1465.88C2074.12 1483.89 2098.54 1494 2124 1494C2149.46 1494 2173.88 1483.89 2191.88 1465.88C2209.89 1447.88 2220 1423.46 2220 1398Z" fill="#417DC4"/>
</g>
<path d="M3748 1158C3748 1104.9 3705.1 1062 3652 1062C3598.9 1062 3556 1104.9 3556 1158V2166C3556 2298.6 3663.4 2406 3796 2406H4996C5049.1 2406 5092 2363.1 5092 2310C5092 2256.9 5049.1 2214 4996 2214H3796C3769.6 2214 3748 2192.4 3748 2166V1158ZM4967.8 1417.8C5005.3 1380.3 5005.3 1319.4 4967.8 1281.9C4930.3 1244.4 4869.4 1244.4 4831.9 1281.9L4516 1598.1L4343.8 1425.9C4306.3 1388.4 4245.4 1388.4 4207.9 1425.9L3871.9 1761.9C3834.4 1799.4 3834.4 1860.3 3871.9 1897.8C3909.4 1935.3 3970.3 1935.3 4007.8 1897.8L4276 1629.9L4448.2 1802.1C4485.7 1839.6 4546.6 1839.6 4584.1 1802.1L4968.1 1418.1L4967.8 1417.8Z" fill="#009099"/>
<path d="M6572 1110C6572 1030.5 6636.5 966 6716 966H6812C6891.5 966 6956 1030.5 6956 1110V2166C6956 2245.5 6891.5 2310 6812 2310H6716C6636.5 2310 6572 2245.5 6572 2166V1110ZM6092 1686C6092 1606.5 6156.5 1542 6236 1542H6332C6411.5 1542 6476 1606.5 6476 1686V2166C6476 2245.5 6411.5 2310 6332 2310H6236C6156.5 2310 6092 2245.5 6092 2166V1686ZM7196 1158H7292C7371.5 1158 7436 1222.5 7436 1302V2166C7436 2245.5 7371.5 2310 7292 2310H7196C7116.5 2310 7052 2245.5 7052 2166V1302C7052 1222.5 7116.5 1158 7196 1158Z" fill="#A558A0"/>
<path d="M1932 4222V3551.8C1932 3524.8 1953 3502 1980 3502C2351.1 3502 2652 3802.9 2652 4174C2652 4201 2629.2 4222 2602.2 4222H1932ZM1116 4318C1116 3954.1 1386.3 3652.9 1737 3604.9C1764.6 3601 1788 3623.2 1788 3651.1V4366L2257.5 4835.5C2277.6 4855.6 2276.1 4888.6 2253 4904.8C2135.4 4988.8 1991.4 5038 1836 5038C1438.5 5038 1116 4715.8 1116 4318ZM2695.2 4366C2723.1 4366 2745 4389.4 2741.4 4417C2718.3 4584.7 2637.6 4733.8 2519.7 4843.9C2501.7 4860.7 2473.5 4859.5 2456.1 4841.8L1980 4366H2695.2Z" fill="#CE614A"/>
<path d="M3748 3790C3748 3684.1 3834.1 3598 3940 3598H5092C5197.9 3598 5284 3684.1 5284 3790V4750C5284 4855.9 5197.9 4942 5092 4942H3940C3834.1 4942 3748 4855.9 3748 4750V3790ZM3940 3982V4750H4420V3982H3940ZM5092 3982H4612V4750H5092V3982Z" fill="#B7A73F"/>
<path d="M6476 3694C6476 3640.9 6433.1 3598 6380 3598C6326.9 3598 6284 3640.9 6284 3694V4702C6284 4834.6 6391.4 4942 6524 4942H7724C7777.1 4942 7820 4899.1 7820 4846C7820 4792.9 7777.1 4750 7724 4750H6524C6497.6 4750 6476 4728.4 6476 4702V3694ZM6764 4558H7628C7681.1 4558 7724 4515.1 7724 4462V4257.4C7724 4234.6 7715.9 4212.4 7700.9 4195L7503.5 3964.6C7467.2 3922 7402.4 3919.6 7362.8 3959.2L7299.8 4022.2C7269.8 4052.2 7220.6 4049.8 7193.6 4017.4L7076 3876.4C7038.2 3831.1 6968.9 3830.2 6929.9 3874.6L6691.7 4147C6676.4 4164.4 6668 4186.9 6668 4210.3V4462.3C6668 4515.4 6710.9 4558.3 6764 4558.3V4558Z" fill="#465F9D"/>
<path d="M31 8880V8751H605V8880H389V9451H247V8880H31ZM780.5 9466C679.5 9466 610.5 9408 610.5 9315C610.5 9239 669.5 9182 777.5 9164L931.5 9138V9125C931.5 9072 891.5 9038 833.5 9038C784.5 9038 746.5 9061 719.5 9098L626.5 9027C671.5 8965 745.5 8927 837.5 8927C983.5 8927 1058.5 9014 1058.5 9125V9451H931.5V9402C899.5 9441 839.5 9466 780.5 9466ZM736.5 9309C736.5 9343 763.5 9365 806.5 9365C864.5 9365 906.5 9338 931.5 9298V9227L811.5 9247C758.5 9256 736.5 9278 736.5 9309ZM1743.93 9199C1743.93 9346 1647.93 9471 1487.93 9471C1418.93 9471 1369.93 9449 1330.93 9410V9451H1203.93V8701H1330.93V8988C1369.93 8949 1418.93 8927 1487.93 8927C1647.93 8927 1743.93 9052 1743.93 9199ZM1469.93 9047C1410.93 9047 1361.93 9073 1330.93 9119V9279C1364.93 9326 1412.93 9351 1469.93 9351C1555.93 9351 1611.93 9287 1611.93 9199C1611.93 9111 1555.93 9047 1469.93 9047ZM1860.18 9451V8701H1987.18V9451H1860.18ZM2603.48 9369C2556.48 9432 2478.48 9471 2383.48 9471C2204.48 9471 2103.48 9346 2103.48 9199C2103.48 9050 2197.48 8927 2362.48 8927C2502.48 8927 2594.48 9022 2594.48 9154C2594.48 9182 2590.48 9208 2586.48 9225H2233.48C2245.48 9319 2303.48 9357 2382.48 9357C2437.48 9357 2485.48 9333 2512.48 9297L2603.48 9369ZM2359.48 9031C2294.48 9031 2251.48 9067 2237.48 9133H2469.48C2467.48 9082 2430.48 9031 2359.48 9031ZM2853.74 9466C2752.74 9466 2683.74 9408 2683.74 9315C2683.74 9239 2742.74 9182 2850.74 9164L3004.74 9138V9125C3004.74 9072 2964.74 9038 2906.74 9038C2857.74 9038 2819.74 9061 2792.74 9098L2699.74 9027C2744.74 8965 2818.74 8927 2910.74 8927C3056.74 8927 3131.74 9014 3131.74 9125V9451H3004.74V9402C2972.74 9441 2912.74 9466 2853.74 9466ZM2809.74 9309C2809.74 9343 2836.74 9365 2879.74 9365C2937.74 9365 2979.74 9338 3004.74 9298V9227L2884.74 9247C2831.74 9256 2809.74 9278 2809.74 9309ZM3609.17 9233V8947H3737.17V9227C3737.17 9378 3649.17 9471 3501.17 9471C3353.17 9471 3266.17 9378 3266.17 9227V8947H3394.17V9233C3394.17 9306 3432.17 9351 3502.17 9351C3571.17 9351 3609.17 9306 3609.17 9233ZM3954.11 9451H3808.11L3986.11 9192L3818.11 8947H3963.11L4067.11 9102L4171.11 8947H4317.11L4148.11 9192L4326.11 9451H4181.11L4067.11 9282L3954.11 9451ZM4656.21 9199C4656.21 9052 4753.21 8927 4912.21 8927C4980.21 8927 5029.21 8948 5068.21 8987V8701H5196.21V9451H5068.21V9411C5029.21 9450 4980.21 9471 4912.21 9471C4753.21 9471 4656.21 9346 4656.21 9199ZM4789.21 9199C4789.21 9287 4844.21 9351 4930.21 9351C4987.21 9351 5034.21 9327 5068.21 9281V9117C5034.21 9071 4987.21 9047 4930.21 9047C4844.21 9047 4789.21 9111 4789.21 9199ZM5812.46 9369C5765.46 9432 5687.46 9471 5592.46 9471C5413.46 9471 5312.46 9346 5312.46 9199C5312.46 9050 5406.46 8927 5571.46 8927C5711.46 8927 5803.46 9022 5803.46 9154C5803.46 9182 5799.46 9208 5795.46 9225H5442.46C5454.46 9319 5512.46 9357 5591.46 9357C5646.46 9357 5694.46 9333 5721.46 9297L5812.46 9369ZM5568.46 9031C5503.46 9031 5460.46 9067 5446.46 9133H5678.46C5676.46 9082 5639.46 9031 5568.46 9031ZM6737.09 9199C6737.09 9346 6641.09 9471 6481.09 9471C6412.09 9471 6363.09 9449 6324.09 9410V9451H6197.09V8701H6324.09V8988C6363.09 8949 6412.09 8927 6481.09 8927C6641.09 8927 6737.09 9052 6737.09 9199ZM6463.09 9047C6404.09 9047 6355.09 9073 6324.09 9119V9279C6358.09 9326 6406.09 9351 6463.09 9351C6549.09 9351 6605.09 9287 6605.09 9199C6605.09 9111 6549.09 9047 6463.09 9047ZM7093.34 8927C7257.34 8927 7369.34 9048 7369.34 9199C7369.34 9350 7257.34 9471 7093.34 9471C6929.34 9471 6817.34 9350 6817.34 9199C6817.34 9048 6929.34 8927 7093.34 8927ZM7095.34 9351C7176.34 9351 7237.34 9286 7237.34 9199C7237.34 9111 7176.34 9047 7095.34 9047C7011.34 9047 6949.34 9111 6949.34 9199C6949.34 9287 7011.34 9351 7095.34 9351ZM7485.18 9451V8947H7612.18V8997C7645.18 8963 7688.18 8937 7745.18 8937C7762.18 8937 7777.18 8940 7789.18 8944V9069C7773.18 9065 7756.18 9062 7733.18 9062C7671.18 9062 7631.18 9096 7612.18 9128V9451H7485.18ZM7833.95 9199C7833.95 9052 7930.95 8927 8089.95 8927C8157.95 8927 8206.95 8948 8245.95 8987V8701H8373.95V9451H8245.95V9411C8206.95 9450 8157.95 9471 8089.95 9471C7930.95 9471 7833.95 9346 7833.95 9199ZM7966.95 9199C7966.95 9287 8021.95 9351 8107.95 9351C8164.95 9351 8211.95 9327 8245.95 9281V9117C8211.95 9071 8164.95 9047 8107.95 9047C8021.95 9047 7966.95 9111 7966.95 9199Z" fill="black"/>
<defs>
<clipPath id="clip0_8_830">
<rect width="1536" height="1536" fill="white" transform="translate(1020 966)"/>
</clipPath>
</defs>
</svg>
