<svg width="9417" height="8186" viewBox="0 0 9417 8186" fill="none" xmlns="http://www.w3.org/2000/svg">
<circle cx="3508" cy="2500" r="2436" fill="#CACAFB" stroke="#666666" stroke-width="128"/>
<path d="M5698 5060L5128 4524C5373.95 4346.46 5479.46 4235.41 5632 4020L6218 4540L5698 5060Z" fill="#F6F6F6" stroke="#666666" stroke-width="128"/>
<path d="M7975.97 8104L5408 5548L6776 4180L9335.97 6724C8866.48 7503.37 8887.97 7528 7975.97 8104Z" fill="#F6F6F6" stroke="#666666" stroke-width="128"/>
<rect y="1093" width="3606" height="3267" rx="250" fill="#FEF4F4"/>
<path d="M584 3213C584 3177.65 555.346 3149 520 3149C484.654 3149 456 3177.65 456 3213H584ZM456 3213V4213H584V3213H456Z" fill="#666666"/>
<path d="M984 2713C984 2677.65 955.346 2649 920 2649C884.654 2649 856 2677.65 856 2713H984ZM856 2713V4213H984V2713H856Z" fill="#666666"/>
<path d="M1384 2213C1384 2177.65 1355.35 2149 1320 2149C1284.65 2149 1256 2177.65 1256 2213H1384ZM1256 2213V4213H1384V2213H1256Z" fill="#666666"/>
<path d="M1784 2713C1784 2677.65 1755.35 2649 1720 2649C1684.65 2649 1656 2677.65 1656 2713H1784ZM1656 2713V4213H1784V2713H1656Z" fill="#666666"/>
<path d="M2184 3213C2184 3177.65 2155.35 3149 2120 3149C2084.65 3149 2056 3177.65 2056 3213H2184ZM2056 3213V4213H2184V3213H2056Z" fill="#666666"/>
<path d="M2584 2713C2584 2677.65 2555.35 2649 2520 2649C2484.65 2649 2456 2677.65 2456 2713H2584ZM2456 2713V4213H2584V2713H2456Z" fill="#666666"/>
<path d="M2984 2513C2984 2477.65 2955.35 2449 2920 2449C2884.65 2449 2856 2477.65 2856 2513H2984ZM2856 2513V4213H2984V2513H2856Z" fill="#666666"/>
<path d="M3384 2213C3384 2177.65 3355.35 2149 3320 2149C3284.65 2149 3256 2177.65 3256 2213H3384ZM3256 2213V4213H3384V2213H3256Z" fill="#666666"/>
<path d="M106 2496L1226 1336L2126 2376L3426 1336M3426 1336H2776M3426 1336V1926" stroke="#666666" stroke-width="128" stroke-linejoin="round"/>
<circle cx="1236" cy="1436" r="236" fill="white" stroke="#666666" stroke-width="128"/>
<circle cx="2166" cy="2256" r="236" fill="white" stroke="#666666" stroke-width="128"/>
</svg>
