<svg width="8704" height="7936" viewBox="0 0 8704 7936" fill="none" xmlns="http://www.w3.org/2000/svg">
<path d="M8448 5888V256H256V5888H8448Z" stroke="#666666" stroke-width="512" stroke-linecap="round" stroke-linejoin="round"/>
<path d="M3424 6656L3584 6144H5120L5280 6656H6464V7680H2304V6656H3424Z" stroke="#666666" stroke-width="512" stroke-linecap="round" stroke-linejoin="round"/>
<g clip-path="url(#clip0_8_831)">
<path d="M987 1734C987 1530.31 1067.91 1334.97 1211.94 1190.94C1355.97 1046.91 1551.31 966 1755 966C1958.69 966 2154.03 1046.91 2298.06 1190.94C2442.09 1334.97 2523 1530.31 2523 1734C2523 1937.69 2442.09 2133.03 2298.06 2277.06C2154.03 2421.09 1958.69 2502 1755 2502C1551.31 2502 1355.97 2421.09 1211.94 2277.06C1067.91 2133.03 987 1937.69 987 1734ZM1947 2022C1947 1941.3 1897.5 1872.3 1827 1844.1V1230C1827 1190.1 1794.9 1158 1755 1158C1715.1 1158 1683 1190.1 1683 1230V1844.1C1612.5 1872.6 1563 1941.6 1563 2022C1563 2127.9 1649.1 2214 1755 2214C1860.9 2214 1947 2127.9 1947 2022ZM1419 1494C1444.46 1494 1468.88 1483.89 1486.88 1465.88C1504.89 1447.88 1515 1423.46 1515 1398C1515 1372.54 1504.89 1348.12 1486.88 1330.12C1468.88 1312.11 1444.46 1302 1419 1302C1393.54 1302 1369.12 1312.11 1351.12 1330.12C1333.11 1348.12 1323 1372.54 1323 1398C1323 1423.46 1333.11 1447.88 1351.12 1465.88C1369.12 1483.89 1393.54 1494 1419 1494ZM1371 1734C1371 1708.54 1360.89 1684.12 1342.88 1666.12C1324.88 1648.11 1300.46 1638 1275 1638C1249.54 1638 1225.12 1648.11 1207.12 1666.12C1189.11 1684.12 1179 1708.54 1179 1734C1179 1759.46 1189.11 1783.88 1207.12 1801.88C1225.12 1819.89 1249.54 1830 1275 1830C1300.46 1830 1324.88 1819.89 1342.88 1801.88C1360.89 1783.88 1371 1759.46 1371 1734ZM2235 1830C2260.46 1830 2284.88 1819.89 2302.88 1801.88C2320.89 1783.88 2331 1759.46 2331 1734C2331 1708.54 2320.89 1684.12 2302.88 1666.12C2284.88 1648.11 2260.46 1638 2235 1638C2209.54 1638 2185.12 1648.11 2167.12 1666.12C2149.11 1684.12 2139 1708.54 2139 1734C2139 1759.46 2149.11 1783.88 2167.12 1801.88C2185.12 1819.89 2209.54 1830 2235 1830ZM2187 1398C2187 1372.54 2176.89 1348.12 2158.88 1330.12C2140.88 1312.11 2116.46 1302 2091 1302C2065.54 1302 2041.12 1312.11 2023.12 1330.12C2005.11 1348.12 1995 1372.54 1995 1398C1995 1423.46 2005.11 1447.88 2023.12 1465.88C2041.12 1483.89 2065.54 1494 2091 1494C2116.46 1494 2140.88 1483.89 2158.88 1465.88C2176.89 1447.88 2187 1423.46 2187 1398Z" fill="#417DC4"/>
</g>
<path d="M3715 1158C3715 1104.9 3672.1 1062 3619 1062C3565.9 1062 3523 1104.9 3523 1158V2166C3523 2298.6 3630.4 2406 3763 2406H4963C5016.1 2406 5059 2363.1 5059 2310C5059 2256.9 5016.1 2214 4963 2214H3763C3736.6 2214 3715 2192.4 3715 2166V1158ZM4934.8 1417.8C4972.3 1380.3 4972.3 1319.4 4934.8 1281.9C4897.3 1244.4 4836.4 1244.4 4798.9 1281.9L4483 1598.1L4310.8 1425.9C4273.3 1388.4 4212.4 1388.4 4174.9 1425.9L3838.9 1761.9C3801.4 1799.4 3801.4 1860.3 3838.9 1897.8C3876.4 1935.3 3937.3 1935.3 3974.8 1897.8L4243 1629.9L4415.2 1802.1C4452.7 1839.6 4513.6 1839.6 4551.1 1802.1L4935.1 1418.1L4934.8 1417.8Z" fill="#009099"/>
<path d="M6539 1110C6539 1030.5 6603.5 966 6683 966H6779C6858.5 966 6923 1030.5 6923 1110V2166C6923 2245.5 6858.5 2310 6779 2310H6683C6603.5 2310 6539 2245.5 6539 2166V1110ZM6059 1686C6059 1606.5 6123.5 1542 6203 1542H6299C6378.5 1542 6443 1606.5 6443 1686V2166C6443 2245.5 6378.5 2310 6299 2310H6203C6123.5 2310 6059 2245.5 6059 2166V1686ZM7163 1158H7259C7338.5 1158 7403 1222.5 7403 1302V2166C7403 2245.5 7338.5 2310 7259 2310H7163C7083.5 2310 7019 2245.5 7019 2166V1302C7019 1222.5 7083.5 1158 7163 1158Z" fill="#A558A0"/>
<path d="M1899 4222V3551.8C1899 3524.8 1920 3502 1947 3502C2318.1 3502 2619 3802.9 2619 4174C2619 4201 2596.2 4222 2569.2 4222H1899ZM1083 4318C1083 3954.1 1353.3 3652.9 1704 3604.9C1731.6 3601 1755 3623.2 1755 3651.1V4366L2224.5 4835.5C2244.6 4855.6 2243.1 4888.6 2220 4904.8C2102.4 4988.8 1958.4 5038 1803 5038C1405.5 5038 1083 4715.8 1083 4318ZM2662.2 4366C2690.1 4366 2712 4389.4 2708.4 4417C2685.3 4584.7 2604.6 4733.8 2486.7 4843.9C2468.7 4860.7 2440.5 4859.5 2423.1 4841.8L1947 4366H2662.2Z" fill="#CE614A"/>
<path d="M3715 3790C3715 3684.1 3801.1 3598 3907 3598H5059C5164.9 3598 5251 3684.1 5251 3790V4750C5251 4855.9 5164.9 4942 5059 4942H3907C3801.1 4942 3715 4855.9 3715 4750V3790ZM3907 3982V4750H4387V3982H3907ZM5059 3982H4579V4750H5059V3982Z" fill="#B7A73F"/>
<path d="M6443 3694C6443 3640.9 6400.1 3598 6347 3598C6293.9 3598 6251 3640.9 6251 3694V4702C6251 4834.6 6358.4 4942 6491 4942H7691C7744.1 4942 7787 4899.1 7787 4846C7787 4792.9 7744.1 4750 7691 4750H6491C6464.6 4750 6443 4728.4 6443 4702V3694ZM6731 4558H7595C7648.1 4558 7691 4515.1 7691 4462V4257.4C7691 4234.6 7682.9 4212.4 7667.9 4195L7470.5 3964.6C7434.2 3922 7369.4 3919.6 7329.8 3959.2L7266.8 4022.2C7236.8 4052.2 7187.6 4049.8 7160.6 4017.4L7043 3876.4C7005.2 3831.1 6935.9 3830.2 6896.9 3874.6L6658.7 4147C6643.4 4164.4 6635 4186.9 6635 4210.3V4462.3C6635 4515.4 6677.9 4558.3 6731 4558.3V4558Z" fill="#465F9D"/>
<defs>
<clipPath id="clip0_8_831">
<rect width="1536" height="1536" fill="white" transform="translate(987 966)"/>
</clipPath>
</defs>
</svg>
