<svg width="32768" height="9355" viewBox="0 0 32768 9355" fill="none" xmlns="http://www.w3.org/2000/svg">
<path d="M957.964 423.57V7570.73H9936.53" stroke="#666666" stroke-width="256" stroke-linecap="round" stroke-linejoin="round"/>
<path d="M1634.17 1334.58V2273.76H2573.35V1334.58H1634.17Z" fill="#FCBFBF" stroke="#666666" stroke-width="128" stroke-linejoin="round"/>
<path d="M1634.17 2403.36V7381.02H2573.35V2403.36H1634.17Z" fill="#8585F6" stroke="#666666" stroke-width="128" stroke-linejoin="round"/>
<path d="M3493.75 3682.53V4903.46H4432.93V3682.53H3493.75Z" fill="#FCBFBF" stroke="#666666" stroke-width="128" stroke-linejoin="round"/>
<path d="M3493.75 5033.07V7381.02H4432.93V5033.07H3493.75Z" fill="#8585F6" stroke="#666666" stroke-width="128" stroke-linejoin="round"/>
<path d="M5353.33 677.149V1146.74H6292.51V677.149H5353.33Z" fill="#FCBFBF" stroke="#666666" stroke-width="128" stroke-linejoin="round"/>
<path d="M5353.33 1276.35V7381.02H6292.51V1276.35H5353.33Z" fill="#8585F6" stroke="#666666" stroke-width="128" stroke-linejoin="round"/>
<path d="M7212.9 3683.47V6031.42H8152.08V3683.47H7212.9Z" fill="#FCBFBF" stroke="#666666" stroke-width="128" stroke-linejoin="round"/>
<path d="M7212.9 6161.02V7381.96H8152.08V6161.02H7212.9Z" fill="#8585F6" stroke="#666666" stroke-width="128" stroke-linejoin="round"/>
<path d="M14.0877 8456.38H155.904L350.314 8970.11L544.725 8456.38H686.541L437.658 9113.81H262.97L14.0877 8456.38ZM832.202 8557.81C789.939 8557.81 754.25 8522.12 754.25 8479.86C754.25 8437.6 789.939 8401.91 832.202 8401.91C874.465 8401.91 909.215 8437.6 909.215 8479.86C909.215 8522.12 874.465 8557.81 832.202 8557.81ZM772.094 9113.81V8640.46H891.37V9113.81H772.094ZM986.66 9045.25L1065.55 8973.87C1094.67 9010.5 1129.42 9036.79 1174.5 9036.79C1213 9036.79 1232.73 9014.25 1232.73 8986.08C1232.73 8903.43 1006.38 8934.42 1006.38 8768.19C1006.38 8684.6 1076.82 8621.67 1175.44 8621.67C1247.75 8621.67 1313.5 8656.42 1347.31 8702.44L1268.41 8771.94C1244 8741.89 1213 8717.47 1176.37 8717.47C1138.81 8717.47 1120.96 8738.13 1120.96 8762.55C1120.96 8843.32 1347.31 8815.15 1347.31 8978.56C1345.43 9078.12 1265.6 9132.59 1176.37 9132.59C1091.85 9132.59 1031.74 9098.78 986.66 9045.25ZM1769.03 8909.06V8640.46H1889.24V8903.43C1889.24 9045.25 1806.59 9132.59 1667.6 9132.59C1528.6 9132.59 1446.89 9045.25 1446.89 8903.43V8640.46H1567.1V8909.06C1567.1 8977.62 1602.79 9019.89 1668.53 9019.89C1733.34 9019.89 1769.03 8977.62 1769.03 8909.06ZM2145.47 9127.89C2050.61 9127.89 1985.81 9073.42 1985.81 8986.08C1985.81 8914.7 2041.22 8861.17 2142.65 8844.26L2287.29 8819.84V8807.63C2287.29 8757.86 2249.72 8725.92 2195.25 8725.92C2149.23 8725.92 2113.54 8747.53 2088.18 8782.27L2000.84 8715.59C2043.1 8657.36 2112.6 8621.67 2199 8621.67C2336.12 8621.67 2406.56 8703.38 2406.56 8807.63V9113.81H2287.29V9067.79C2257.23 9104.41 2200.88 9127.89 2145.47 9127.89ZM2104.15 8980.44C2104.15 9012.37 2129.5 9033.04 2169.89 9033.04C2224.36 9033.04 2263.81 9007.68 2287.29 8970.11V8903.43L2174.58 8922.21C2124.81 8930.67 2104.15 8951.33 2104.15 8980.44ZM2543.15 9113.81V8409.42H2662.42V9113.81H2543.15ZM2865.56 8557.81C2823.3 8557.81 2787.61 8522.12 2787.61 8479.86C2787.61 8437.6 2823.3 8401.91 2865.56 8401.91C2907.83 8401.91 2942.58 8437.6 2942.58 8479.86C2942.58 8522.12 2907.83 8557.81 2865.56 8557.81ZM2805.46 9113.81V8640.46H2924.73V9113.81H2805.46ZM3020.02 9045.25L3098.91 8973.87C3128.03 9010.5 3162.78 9036.79 3207.86 9036.79C3246.36 9036.79 3266.09 9014.25 3266.09 8986.08C3266.09 8903.43 3039.75 8934.42 3039.75 8768.19C3039.75 8684.6 3110.18 8621.67 3208.8 8621.67C3281.11 8621.67 3346.86 8656.42 3380.67 8702.44L3301.78 8771.94C3277.36 8741.89 3246.36 8717.47 3209.74 8717.47C3172.17 8717.47 3154.33 8738.13 3154.33 8762.55C3154.33 8843.32 3380.67 8815.15 3380.67 8978.56C3378.79 9078.12 3298.96 9132.59 3209.74 9132.59C3125.21 9132.59 3065.1 9098.78 3020.02 9045.25ZM3620.28 9127.89C3525.42 9127.89 3460.62 9073.42 3460.62 8986.08C3460.62 8914.7 3516.03 8861.17 3617.46 8844.26L3762.09 8819.84V8807.63C3762.09 8757.86 3724.52 8725.92 3670.05 8725.92C3624.03 8725.92 3588.34 8747.53 3562.99 8782.27L3475.64 8715.59C3517.91 8657.36 3587.4 8621.67 3673.81 8621.67C3810.93 8621.67 3881.37 8703.38 3881.37 8807.63V9113.81H3762.09V9067.79C3732.04 9104.41 3675.69 9127.89 3620.28 9127.89ZM3578.95 8980.44C3578.95 9012.37 3604.31 9033.04 3644.69 9033.04C3699.17 9033.04 3738.61 9007.68 3762.09 8970.11V8903.43L3649.39 8922.21C3599.61 8930.67 3578.95 8951.33 3578.95 8980.44ZM4048.01 8941V8747.53H3959.72V8640.46H4048.01V8522.12H4168.22V8640.46H4312.86V8747.53H4168.22V8941C4168.22 8993.59 4196.4 9014.25 4243.36 9014.25C4276.23 9014.25 4297.83 9010.5 4313.79 9003.92V9108.17C4290.31 9118.5 4262.14 9123.2 4222.69 9123.2C4104.36 9123.2 4048.01 9056.52 4048.01 8941ZM4479.78 8557.81C4437.52 8557.81 4401.83 8522.12 4401.83 8479.86C4401.83 8437.6 4437.52 8401.91 4479.78 8401.91C4522.04 8401.91 4556.79 8437.6 4556.79 8479.86C4556.79 8522.12 4522.04 8557.81 4479.78 8557.81ZM4419.67 9113.81V8640.46H4538.95V9113.81H4419.67ZM4907.39 8621.67C5061.41 8621.67 5166.6 8735.32 5166.6 8877.13C5166.6 9018.95 5061.41 9132.59 4907.39 9132.59C4753.36 9132.59 4648.17 9018.95 4648.17 8877.13C4648.17 8735.32 4753.36 8621.67 4907.39 8621.67ZM4909.26 9019.89C4985.34 9019.89 5042.63 8958.84 5042.63 8877.13C5042.63 8794.48 4985.34 8734.38 4909.26 8734.38C4830.37 8734.38 4772.14 8794.48 4772.14 8877.13C4772.14 8959.78 4830.37 9019.89 4909.26 9019.89ZM5275.39 9113.81V8640.46H5394.67V8678.03C5427.54 8646.09 5471.68 8621.67 5534.6 8621.67C5636.97 8621.67 5718.68 8692.11 5718.68 8832.05V9113.81H5598.47V8836.75C5598.47 8773.82 5562.78 8734.38 5504.55 8734.38C5444.44 8734.38 5412.51 8774.76 5394.67 8804.82V9113.81H5275.39ZM6073.45 8877.13C6073.45 8739.07 6164.55 8621.67 6313.88 8621.67C6377.75 8621.67 6423.77 8641.4 6460.39 8678.03V8409.42H6580.61V9113.81H6460.39V9076.24C6423.77 9112.87 6377.75 9132.59 6313.88 9132.59C6164.55 9132.59 6073.45 9015.19 6073.45 8877.13ZM6198.36 8877.13C6198.36 8959.78 6250.02 9019.89 6330.79 9019.89C6384.32 9019.89 6428.46 8997.35 6460.39 8954.14V8800.12C6428.46 8756.92 6384.32 8734.38 6330.79 8734.38C6250.02 8734.38 6198.36 8794.48 6198.36 8877.13ZM7159.38 9036.79C7115.24 9095.96 7041.98 9132.59 6952.76 9132.59C6784.65 9132.59 6689.79 9015.19 6689.79 8877.13C6689.79 8737.19 6778.07 8621.67 6933.04 8621.67C7064.52 8621.67 7150.93 8710.9 7150.93 8834.87C7150.93 8861.17 7147.17 8885.58 7143.41 8901.55H6811.88C6823.15 8989.83 6877.62 9025.52 6951.82 9025.52C7003.47 9025.52 7048.56 9002.98 7073.91 8969.17L7159.38 9036.79ZM6930.22 8719.35C6869.17 8719.35 6828.79 8753.16 6815.64 8815.15H7033.53C7031.65 8767.25 6996.9 8719.35 6930.22 8719.35ZM7486.81 8877.13C7486.81 8739.07 7577.91 8621.67 7727.24 8621.67C7791.1 8621.67 7837.12 8641.4 7873.75 8678.03V8409.42H7993.97V9113.81H7873.75V9076.24C7837.12 9112.87 7791.1 9132.59 7727.24 9132.59C7577.91 9132.59 7486.81 9015.19 7486.81 8877.13ZM7611.72 8877.13C7611.72 8959.78 7663.37 9019.89 7744.14 9019.89C7797.68 9019.89 7841.82 8997.35 7873.75 8954.14V8800.12C7841.82 8756.92 7797.68 8734.38 7744.14 8734.38C7663.37 8734.38 7611.72 8794.48 7611.72 8877.13ZM8362.36 8621.67C8516.38 8621.67 8621.57 8735.32 8621.57 8877.13C8621.57 9018.95 8516.38 9132.59 8362.36 9132.59C8208.33 9132.59 8103.14 9018.95 8103.14 8877.13C8103.14 8735.32 8208.33 8621.67 8362.36 8621.67ZM8364.24 9019.89C8440.31 9019.89 8497.6 8958.84 8497.6 8877.13C8497.6 8794.48 8440.31 8734.38 8364.24 8734.38C8285.35 8734.38 8227.12 8794.48 8227.12 8877.13C8227.12 8959.78 8285.35 9019.89 8364.24 9019.89ZM8730.36 9113.81V8640.46H8849.64V8678.03C8882.51 8646.09 8926.65 8621.67 8989.58 8621.67C9091.95 8621.67 9173.66 8692.11 9173.66 8832.05V9113.81H9053.44V8836.75C9053.44 8773.82 9017.75 8734.38 8959.52 8734.38C8899.42 8734.38 8867.48 8774.76 8849.64 8804.82V9113.81H8730.36ZM9309.1 9113.81V8640.46H9428.37V8678.03C9461.24 8646.09 9505.38 8621.67 9568.31 8621.67C9670.68 8621.67 9752.39 8692.11 9752.39 8832.05V9113.81H9632.17V8836.75C9632.17 8773.82 9596.49 8734.38 9538.26 8734.38C9478.15 8734.38 9446.22 8774.76 9428.37 8804.82V9113.81H9309.1ZM10163 8565.32H10048.4L10146.1 8409.42H10275.7L10163 8565.32ZM10323.6 9036.79C10279.5 9095.96 10206.2 9132.59 10117 9132.59C9948.88 9132.59 9854.02 9015.19 9854.02 8877.13C9854.02 8737.19 9942.3 8621.67 10097.3 8621.67C10228.8 8621.67 10315.2 8710.9 10315.2 8834.87C10315.2 8861.17 10311.4 8885.58 10307.6 8901.55H9976.11C9987.38 8989.83 10041.9 9025.52 10116.1 9025.52C10167.7 9025.52 10212.8 9002.98 10238.1 8969.17L10323.6 9036.79ZM10094.4 8719.35C10033.4 8719.35 9993.02 8753.16 9979.87 8815.15H10197.8C10195.9 8767.25 10161.1 8719.35 10094.4 8719.35ZM10863.8 9036.79C10819.7 9095.96 10746.4 9132.59 10657.2 9132.59C10489.1 9132.59 10394.2 9015.19 10394.2 8877.13C10394.2 8737.19 10482.5 8621.67 10637.5 8621.67C10769 8621.67 10855.4 8710.9 10855.4 8834.87C10855.4 8861.17 10851.6 8885.58 10847.9 8901.55H10516.3C10527.6 8989.83 10582.1 9025.52 10656.3 9025.52C10707.9 9025.52 10753 9002.98 10778.4 8969.17L10863.8 9036.79ZM10634.7 8719.35C10573.6 8719.35 10533.2 8753.16 10520.1 8815.15H10738C10736.1 8767.25 10701.3 8719.35 10634.7 8719.35ZM10924.2 9045.25L11003.1 8973.87C11032.2 9010.5 11066.9 9036.79 11112 9036.79C11150.5 9036.79 11170.2 9014.25 11170.2 8986.08C11170.2 8903.43 10943.9 8934.42 10943.9 8768.19C10943.9 8684.6 11014.3 8621.67 11113 8621.67C11185.3 8621.67 11251 8656.42 11284.8 8702.44L11205.9 8771.94C11181.5 8741.89 11150.5 8717.47 11113.9 8717.47C11076.3 8717.47 11058.5 8738.13 11058.5 8762.55C11058.5 8843.32 11284.8 8815.15 11284.8 8978.56C11282.9 9078.12 11203.1 9132.59 11113.9 9132.59C11029.4 9132.59 10969.3 9098.78 10924.2 9045.25Z" fill="black"/>
<path d="M20737.1 5767.51V478.043H13043.3V5767.51H20737.1Z" stroke="#666666" stroke-width="512" stroke-linecap="round" stroke-linejoin="round"/>
<path d="M16018.7 6488.8L16168.9 6007.94H17611.5L17761.8 6488.8H18873.8V7450.52H14966.8V6488.8H16018.7Z" stroke="#666666" stroke-width="512" stroke-linecap="round" stroke-linejoin="round"/>
<g clip-path="url(#clip0_8_812)">
<path d="M13729.9 1866.15C13729.9 1674.85 13805.9 1491.39 13941.1 1356.12C14076.4 1220.85 14259.9 1144.86 14451.2 1144.86C14642.5 1144.86 14825.9 1220.85 14961.2 1356.12C15096.5 1491.39 15172.5 1674.85 15172.5 1866.15C15172.5 2057.45 15096.5 2240.91 14961.2 2376.18C14825.9 2511.45 14642.5 2587.44 14451.2 2587.44C14259.9 2587.44 14076.4 2511.45 13941.1 2376.18C13805.9 2240.91 13729.9 2057.45 13729.9 1866.15ZM14631.5 2136.64C14631.5 2060.84 14585 1996.04 14518.8 1969.56V1392.8C14518.8 1355.33 14488.6 1325.18 14451.2 1325.18C14413.7 1325.18 14383.5 1355.33 14383.5 1392.8V1969.56C14317.3 1996.32 14270.8 2061.13 14270.8 2136.64C14270.8 2236.09 14351.7 2316.96 14451.2 2316.96C14550.6 2316.96 14631.5 2236.09 14631.5 2136.64ZM14135.6 1640.75C14159.5 1640.75 14182.4 1631.25 14199.4 1614.34C14216.3 1597.43 14225.8 1574.5 14225.8 1550.59C14225.8 1526.67 14216.3 1503.74 14199.4 1486.83C14182.4 1469.92 14159.5 1460.43 14135.6 1460.43C14111.7 1460.43 14088.8 1469.92 14071.8 1486.83C14054.9 1503.74 14045.4 1526.67 14045.4 1550.59C14045.4 1574.5 14054.9 1597.43 14071.8 1614.34C14088.8 1631.25 14111.7 1640.75 14135.6 1640.75ZM14090.5 1866.15C14090.5 1842.24 14081 1819.31 14064.1 1802.4C14047.2 1785.49 14024.3 1775.99 14000.4 1775.99C13976.4 1775.99 13953.5 1785.49 13936.6 1802.4C13919.7 1819.31 13910.2 1842.24 13910.2 1866.15C13910.2 1890.06 13919.7 1913 13936.6 1929.9C13953.5 1946.81 13976.4 1956.31 14000.4 1956.31C14024.3 1956.31 14047.2 1946.81 14064.1 1929.9C14081 1913 14090.5 1890.06 14090.5 1866.15ZM14902 1956.31C14925.9 1956.31 14948.8 1946.81 14965.7 1929.9C14982.6 1913 14992.1 1890.06 14992.1 1866.15C14992.1 1842.24 14982.6 1819.31 14965.7 1802.4C14948.8 1785.49 14925.9 1775.99 14902 1775.99C14878.1 1775.99 14855.1 1785.49 14838.2 1802.4C14821.3 1819.31 14811.8 1842.24 14811.8 1866.15C14811.8 1890.06 14821.3 1913 14838.2 1929.9C14855.1 1946.81 14878.1 1956.31 14902 1956.31ZM14856.9 1550.59C14856.9 1526.67 14847.4 1503.74 14830.5 1486.83C14813.6 1469.92 14790.6 1460.43 14766.7 1460.43C14742.8 1460.43 14719.9 1469.92 14703 1486.83C14686.1 1503.74 14676.6 1526.67 14676.6 1550.59C14676.6 1574.5 14686.1 1597.43 14703 1614.34C14719.9 1631.25 14742.8 1640.75 14766.7 1640.75C14790.6 1640.75 14813.6 1631.25 14830.5 1614.34C14847.4 1597.43 14856.9 1574.5 14856.9 1550.59Z" fill="#417DC4"/>
</g>
<path d="M16292 1325.18C16292 1275.31 16251.7 1235.02 16201.8 1235.02C16151.9 1235.02 16111.6 1275.31 16111.6 1325.18V2271.88C16111.6 2396.41 16212.5 2497.28 16337 2497.28H17464.1C17513.9 2497.28 17554.2 2456.99 17554.2 2407.12C17554.2 2357.25 17513.9 2316.96 17464.1 2316.96H16337C16312.2 2316.96 16292 2296.67 16292 2271.88V1325.18ZM17437.6 1569.18C17472.8 1533.96 17472.8 1476.77 17437.6 1441.55C17402.4 1406.33 17345.2 1406.33 17309.9 1441.55L17013.3 1738.52L16851.5 1576.79C16816.3 1541.57 16759.1 1541.57 16723.9 1576.79L16408.3 1892.35C16373.1 1927.57 16373.1 1984.77 16408.3 2019.99C16443.5 2055.21 16500.7 2055.21 16536 2019.99L16787.8 1768.38L16949.6 1930.11C16984.8 1965.33 17042 1965.33 17077.2 1930.11L17437.9 1569.46L17437.6 1569.18Z" fill="#009099"/>
<path d="M18944.2 1280.1C18944.2 1205.44 19004.8 1144.86 19079.4 1144.86H19169.6C19244.3 1144.86 19304.9 1205.44 19304.9 1280.1V2271.88C19304.9 2346.54 19244.3 2407.12 19169.6 2407.12H19079.4C19004.8 2407.12 18944.2 2346.54 18944.2 2271.88V1280.1ZM18493.4 1821.07C18493.4 1746.41 18554 1685.83 18628.6 1685.83H18718.8C18793.5 1685.83 18854 1746.41 18854 1821.07V2271.88C18854 2346.54 18793.5 2407.12 18718.8 2407.12H18628.6C18554 2407.12 18493.4 2346.54 18493.4 2271.88V1821.07ZM19530.3 1325.18H19620.4C19695.1 1325.18 19755.7 1385.76 19755.7 1460.43V2271.88C19755.7 2346.54 19695.1 2407.12 19620.4 2407.12H19530.3C19455.6 2407.12 19395 2346.54 19395 2271.88V1460.43C19395 1385.76 19455.6 1325.18 19530.3 1325.18Z" fill="#A558A0"/>
<path d="M14586.4 4202.83V3573.39C14586.4 3548.04 14606.1 3526.62 14631.5 3526.62C14980 3526.62 15262.6 3809.22 15262.6 4157.75C15262.6 4183.11 15241.2 4202.83 15215.8 4202.83H14586.4ZM13820 4292.99C13820 3951.23 14073.9 3668.34 14403.3 3623.26C14429.2 3619.6 14451.2 3640.45 14451.2 3666.65V4338.07L14892.1 4779.02C14911 4797.9 14909.6 4828.89 14887.9 4844.1C14777.4 4923 14642.2 4969.2 14496.2 4969.2C14122.9 4969.2 13820 4666.6 13820 4292.99ZM15303.2 4338.07C15329.4 4338.07 15350 4360.05 15346.6 4385.97C15324.9 4543.47 15249.1 4683.5 15138.4 4786.91C15121.5 4802.69 15095 4801.56 15078.6 4784.94L14631.5 4338.07H15303.2Z" fill="#CE614A"/>
<path d="M16292 3797.11C16292 3697.65 16372.8 3616.78 16472.3 3616.78H17554.2C17653.7 3616.78 17734.5 3697.65 17734.5 3797.11V4698.72C17734.5 4798.18 17653.7 4879.04 17554.2 4879.04H16472.3C16372.8 4879.04 16292 4798.18 16292 4698.72V3797.11ZM16472.3 3977.43V4698.72H16923.1V3977.43H16472.3ZM17554.2 3977.43H17103.4V4698.72H17554.2V3977.43Z" fill="#B7A73F"/>
<path d="M18854 3706.94C18854 3657.07 18813.8 3616.78 18763.9 3616.78C18714 3616.78 18673.7 3657.07 18673.7 3706.94V4653.64C18673.7 4778.17 18774.6 4879.04 18899.1 4879.04H20026.1C20076 4879.04 20116.3 4838.75 20116.3 4788.88C20116.3 4739.01 20076 4698.72 20026.1 4698.72H18899.1C18874.3 4698.72 18854 4678.43 18854 4653.64V3706.94ZM19124.5 4518.4H19936C19985.9 4518.4 20026.1 4478.11 20026.1 4428.24V4236.08C20026.1 4214.67 20018.5 4193.82 20004.4 4177.47L19819.1 3961.09C19785 3921.08 19724.1 3918.82 19686.9 3956.02L19627.7 4015.18C19599.6 4043.36 19553.4 4041.1 19528 4010.68L19417.6 3878.25C19382.1 3835.71 19317 3834.86 19280.3 3876.56L19056.6 4132.39C19042.3 4148.73 19034.4 4169.87 19034.4 4191.84V4428.52C19034.4 4478.39 19074.7 4518.68 19124.5 4518.68V4518.4Z" fill="#465F9D"/>
<path d="M12801 8577.53V8456.38H13340.1V8577.53H13137.3V9113.81H13003.9V8577.53H12801ZM13504.9 9127.89C13410.1 9127.89 13345.3 9073.42 13345.3 8986.08C13345.3 8914.7 13400.7 8861.17 13502.1 8844.26L13646.8 8819.84V8807.63C13646.8 8757.86 13609.2 8725.92 13554.7 8725.92C13508.7 8725.92 13473 8747.53 13447.7 8782.27L13360.3 8715.59C13402.6 8657.36 13472.1 8621.67 13558.5 8621.67C13695.6 8621.67 13766 8703.38 13766 8807.63V9113.81H13646.8V9067.79C13616.7 9104.41 13560.4 9127.89 13504.9 9127.89ZM13463.6 8980.44C13463.6 9012.37 13489 9033.04 13529.4 9033.04C13583.8 9033.04 13623.3 9007.68 13646.8 8970.11V8903.43L13534.1 8922.21C13484.3 8930.67 13463.6 8951.33 13463.6 8980.44ZM14409.8 8877.13C14409.8 9015.19 14319.6 9132.59 14169.3 9132.59C14104.5 9132.59 14058.5 9111.93 14021.9 9075.3V9113.81H13902.6V8409.42H14021.9V8678.96C14058.5 8642.34 14104.5 8621.67 14169.3 8621.67C14319.6 8621.67 14409.8 8739.07 14409.8 8877.13ZM14152.4 8734.38C14097 8734.38 14051 8758.8 14021.9 8802V8952.27C14053.8 8996.41 14098.9 9019.89 14152.4 9019.89C14233.2 9019.89 14285.8 8959.78 14285.8 8877.13C14285.8 8794.48 14233.2 8734.38 14152.4 8734.38ZM14519 9113.81V8409.42H14638.2V9113.81H14519ZM15217 9036.79C15172.9 9095.96 15099.6 9132.59 15010.4 9132.59C14842.3 9132.59 14747.5 9015.19 14747.5 8877.13C14747.5 8737.19 14835.7 8621.67 14990.7 8621.67C15122.2 8621.67 15208.6 8710.9 15208.6 8834.87C15208.6 8861.17 15204.8 8885.58 15201.1 8901.55H14869.5C14880.8 8989.83 14935.3 9025.52 15009.5 9025.52C15061.1 9025.52 15106.2 9002.98 15131.6 8969.17L15217 9036.79ZM14987.9 8719.35C14926.8 8719.35 14886.5 8753.16 14873.3 8815.15H15091.2C15089.3 8767.25 15054.6 8719.35 14987.9 8719.35ZM15452.1 9127.89C15357.2 9127.89 15292.4 9073.42 15292.4 8986.08C15292.4 8914.7 15347.8 8861.17 15449.3 8844.26L15593.9 8819.84V8807.63C15593.9 8757.86 15556.3 8725.92 15501.9 8725.92C15455.8 8725.92 15420.2 8747.53 15394.8 8782.27L15307.5 8715.59C15349.7 8657.36 15419.2 8621.67 15505.6 8621.67C15642.7 8621.67 15713.2 8703.38 15713.2 8807.63V9113.81H15593.9V9067.79C15563.9 9104.41 15507.5 9127.89 15452.1 9127.89ZM15410.8 8980.44C15410.8 9012.37 15436.1 9033.04 15476.5 9033.04C15531 9033.04 15570.4 9007.68 15593.9 8970.11V8903.43L15481.2 8922.21C15431.4 8930.67 15410.8 8951.33 15410.8 8980.44ZM16161.6 8909.06V8640.46H16281.8V8903.43C16281.8 9045.25 16199.1 9132.59 16060.1 9132.59C15921.1 9132.59 15839.4 9045.25 15839.4 8903.43V8640.46H15959.7V8909.06C15959.7 8977.62 15995.3 9019.89 16061.1 9019.89C16125.9 9019.89 16161.6 8977.62 16161.6 8909.06ZM16485.5 9113.81H16348.4L16515.6 8870.56L16357.8 8640.46H16494L16591.7 8786.03L16689.3 8640.46H16826.5L16667.7 8870.56L16834.9 9113.81H16698.7L16591.7 8955.08L16485.5 9113.81ZM17144.9 8877.13C17144.9 8739.07 17236 8621.67 17385.4 8621.67C17449.2 8621.67 17495.2 8641.4 17531.9 8678.03V8409.42H17652.1V9113.81H17531.9V9076.24C17495.2 9112.87 17449.2 9132.59 17385.4 9132.59C17236 9132.59 17144.9 9015.19 17144.9 8877.13ZM17269.8 8877.13C17269.8 8959.78 17321.5 9019.89 17402.3 9019.89C17455.8 9019.89 17499.9 8997.35 17531.9 8954.14V8800.12C17499.9 8756.92 17455.8 8734.38 17402.3 8734.38C17321.5 8734.38 17269.8 8794.48 17269.8 8877.13ZM18230.9 9036.79C18186.7 9095.96 18113.5 9132.59 18024.2 9132.59C17856.1 9132.59 17761.3 9015.19 17761.3 8877.13C17761.3 8737.19 17849.6 8621.67 18004.5 8621.67C18136 8621.67 18222.4 8710.9 18222.4 8834.87C18222.4 8861.17 18218.7 8885.58 18214.9 8901.55H17883.4C17894.6 8989.83 17949.1 9025.52 18023.3 9025.52C18075 9025.52 18120 9002.98 18145.4 8969.17L18230.9 9036.79ZM18001.7 8719.35C17940.7 8719.35 17900.3 8753.16 17887.1 8815.15H18105C18103.1 8767.25 18068.4 8719.35 18001.7 8719.35ZM19099.3 8877.13C19099.3 9015.19 19009.1 9132.59 18858.8 9132.59C18794 9132.59 18748 9111.93 18711.4 9075.3V9113.81H18592.1V8409.42H18711.4V8678.96C18748 8642.34 18794 8621.67 18858.8 8621.67C19009.1 8621.67 19099.3 8739.07 19099.3 8877.13ZM18841.9 8734.38C18786.5 8734.38 18740.5 8758.8 18711.4 8802V8952.27C18743.3 8996.41 18788.4 9019.89 18841.9 9019.89C18922.7 9019.89 18975.3 8959.78 18975.3 8877.13C18975.3 8794.48 18922.7 8734.38 18841.9 8734.38ZM19433.8 8621.67C19587.9 8621.67 19693.1 8735.32 19693.1 8877.13C19693.1 9018.95 19587.9 9132.59 19433.8 9132.59C19279.8 9132.59 19174.6 9018.95 19174.6 8877.13C19174.6 8735.32 19279.8 8621.67 19433.8 8621.67ZM19435.7 9019.89C19511.8 9019.89 19569.1 8958.84 19569.1 8877.13C19569.1 8794.48 19511.8 8734.38 19435.7 8734.38C19356.8 8734.38 19298.6 8794.48 19298.6 8877.13C19298.6 8959.78 19356.8 9019.89 19435.7 9019.89ZM19801.8 9113.81V8640.46H19921.1V8687.42C19952.1 8655.49 19992.5 8631.07 20046 8631.07C20062 8631.07 20076.1 8633.88 20087.4 8637.64V8755.04C20072.3 8751.28 20056.4 8748.46 20034.8 8748.46C19976.5 8748.46 19939 8780.4 19921.1 8810.45V9113.81H19801.8ZM20129.4 8877.13C20129.4 8739.07 20220.5 8621.67 20369.8 8621.67C20433.7 8621.67 20479.7 8641.4 20516.3 8678.03V8409.42H20636.6V9113.81H20516.3V9076.24C20479.7 9112.87 20433.7 9132.59 20369.8 9132.59C20220.5 9132.59 20129.4 9015.19 20129.4 8877.13ZM20254.3 8877.13C20254.3 8959.78 20306 9019.89 20386.7 9019.89C20440.3 9019.89 20484.4 8997.35 20516.3 8954.14V8800.12C20484.4 8756.92 20440.3 8734.38 20386.7 8734.38C20306 8734.38 20254.3 8794.48 20254.3 8877.13Z" fill="black"/>
<circle cx="26969.5" cy="2351.71" r="2283.95" fill="#CACAFB" stroke="#666666" stroke-width="128"/>
<path d="M29026.3 4756.01L28491 4252.61C28722 4085.86 28821.1 3981.57 28964.3 3779.26L29514.7 4267.64L29026.3 4756.01Z" fill="#F6F6F6" stroke="#666666" stroke-width="128"/>
<path d="M31165.7 7614.87L28753.9 5214.33L30038.7 3929.53L32443 6318.8C32002.1 7050.77 32022.3 7073.9 31165.7 7614.87Z" fill="#F6F6F6" stroke="#666666" stroke-width="128"/>
<rect x="23674.9" y="1030.28" width="3386.68" height="3068.3" rx="250" fill="#FEF4F4"/>
<path d="M24223.3 3021.34C24223.3 2988.15 24196.4 2961.24 24163.2 2961.24C24130 2961.24 24103.1 2988.15 24103.1 3021.34H24223.3ZM24103.1 3021.34V3960.52H24223.3V3021.34H24103.1Z" fill="#666666"/>
<path d="M24599 2551.75C24599 2518.56 24572.1 2491.65 24538.9 2491.65C24505.7 2491.65 24478.8 2518.56 24478.8 2551.75H24599ZM24478.8 2551.75V3960.52H24599V2551.75H24478.8Z" fill="#666666"/>
<path d="M24974.7 2082.16C24974.7 2048.97 24947.8 2022.06 24914.6 2022.06C24881.4 2022.06 24854.5 2048.97 24854.5 2082.16H24974.7ZM24854.5 2082.16V3960.52H24974.7V2082.16H24854.5Z" fill="#666666"/>
<path d="M25350.4 2551.75C25350.4 2518.56 25323.4 2491.65 25290.2 2491.65C25257.1 2491.65 25230.1 2518.56 25230.1 2551.75H25350.4ZM25230.1 2551.75V3960.52H25350.4V2551.75H25230.1Z" fill="#666666"/>
<path d="M25726 3021.34C25726 2988.15 25699.1 2961.24 25665.9 2961.24C25632.7 2961.24 25605.8 2988.15 25605.8 3021.34H25726ZM25605.8 3021.34V3960.52H25726V3021.34H25605.8Z" fill="#666666"/>
<path d="M26101.7 2551.75C26101.7 2518.56 26074.8 2491.65 26041.6 2491.65C26008.4 2491.65 25981.5 2518.56 25981.5 2551.75H26101.7ZM25981.5 2551.75V3960.52H26101.7V2551.75H25981.5Z" fill="#666666"/>
<path d="M26477.4 2363.92C26477.4 2330.72 26450.5 2303.81 26417.3 2303.81C26384.1 2303.81 26357.2 2330.72 26357.2 2363.92H26477.4ZM26357.2 2363.92V3960.52H26477.4V2363.92H26357.2Z" fill="#666666"/>
<path d="M26853 2082.16C26853 2048.97 26826.1 2022.06 26792.9 2022.06C26759.7 2022.06 26732.8 2048.97 26732.8 2082.16H26853ZM26732.8 2082.16V3960.52H26853V2082.16H26732.8Z" fill="#666666"/>
<path d="M23774.4 2347.95L24826.3 1258.5L25671.6 2235.25L26892.5 1258.5M26892.5 1258.5H26282M26892.5 1258.5V1812.62" stroke="#666666" stroke-width="128" stroke-linejoin="round"/>
<circle cx="24835.7" cy="1352.42" r="217.754" fill="white" stroke="#666666" stroke-width="128"/>
<circle cx="25709.1" cy="2122.55" r="217.754" fill="white" stroke="#666666" stroke-width="128"/>
<path d="M23696.5 9113.81L23945.3 8456.38H24120L24368.9 9113.81H24227.1L24164.2 8942.87H23901.2L23838.3 9113.81H23696.5ZM23942.5 8829.23H24122.8L24032.7 8582.23L23942.5 8829.23ZM24482.9 9113.81V8640.46H24602.2V8678.03C24635 8646.09 24679.2 8621.67 24742.1 8621.67C24844.5 8621.67 24926.2 8692.11 24926.2 8832.05V9113.81H24806V8836.75C24806 8773.82 24770.3 8734.38 24712.1 8734.38C24651.9 8734.38 24620 8774.76 24602.2 8804.82V9113.81H24482.9ZM25195 9127.89C25100.1 9127.89 25035.3 9073.42 25035.3 8986.08C25035.3 8914.7 25090.7 8861.17 25192.2 8844.26L25336.8 8819.84V8807.63C25336.8 8757.86 25299.2 8725.92 25244.8 8725.92C25198.7 8725.92 25163.1 8747.53 25137.7 8782.27L25050.4 8715.59C25092.6 8657.36 25162.1 8621.67 25248.5 8621.67C25385.6 8621.67 25456.1 8703.38 25456.1 8807.63V9113.81H25336.8V9067.79C25306.8 9104.41 25250.4 9127.89 25195 9127.89ZM25153.7 8980.44C25153.7 9012.37 25179 9033.04 25219.4 9033.04C25273.9 9033.04 25313.3 9007.68 25336.8 8970.11V8903.43L25224.1 8922.21C25174.3 8930.67 25153.7 8951.33 25153.7 8980.44ZM25592.7 9113.81V8409.42H25711.9V9113.81H25592.7ZM26067.2 9221.81C26034.4 9299.76 25980.8 9348.6 25890.7 9348.6C25854 9348.6 25828.7 9342.97 25806.1 9333.57V9228.39C25821.2 9234.96 25843.7 9239.66 25864.4 9239.66C25911.3 9239.66 25940.4 9223.69 25960.2 9175.79L25986.5 9112.87L25787.4 8640.46H25919.8L26049.4 8958.84L26179.9 8640.46H26305.8L26067.2 9221.81ZM26324.5 9045.25L26403.4 8973.87C26432.5 9010.5 26467.3 9036.79 26512.4 9036.79C26550.9 9036.79 26570.6 9014.25 26570.6 8986.08C26570.6 8903.43 26344.2 8934.42 26344.2 8768.19C26344.2 8684.6 26414.7 8621.67 26513.3 8621.67C26585.6 8621.67 26651.4 8656.42 26685.2 8702.44L26606.3 8771.94C26581.9 8741.89 26550.9 8717.47 26514.2 8717.47C26476.7 8717.47 26458.8 8738.13 26458.8 8762.55C26458.8 8843.32 26685.2 8815.15 26685.2 8978.56C26683.3 9078.12 26603.5 9132.59 26514.2 9132.59C26429.7 9132.59 26369.6 9098.78 26324.5 9045.25ZM27229 9036.79C27184.9 9095.96 27111.6 9132.59 27022.4 9132.59C26854.3 9132.59 26759.4 9015.19 26759.4 8877.13C26759.4 8737.19 26847.7 8621.67 27002.7 8621.67C27134.2 8621.67 27220.6 8710.9 27220.6 8834.87C27220.6 8861.17 27216.8 8885.58 27213.1 8901.55H26881.5C26892.8 8989.83 26947.3 9025.52 27021.5 9025.52C27073.1 9025.52 27118.2 9002.98 27143.6 8969.17L27229 9036.79ZM26999.9 8719.35C26938.8 8719.35 26898.4 8753.16 26885.3 8815.15H27103.2C27101.3 8767.25 27066.5 8719.35 26999.9 8719.35ZM27556.5 8877.13C27556.5 8739.07 27647.6 8621.67 27796.9 8621.67C27860.7 8621.67 27906.8 8641.4 27943.4 8678.03V8409.42H28063.6V9113.81H27943.4V9076.24C27906.8 9112.87 27860.7 9132.59 27796.9 9132.59C27647.6 9132.59 27556.5 9015.19 27556.5 8877.13ZM27681.4 8877.13C27681.4 8959.78 27733 9019.89 27813.8 9019.89C27867.3 9019.89 27911.5 8997.35 27943.4 8954.14V8800.12C27911.5 8756.92 27867.3 8734.38 27813.8 8734.38C27733 8734.38 27681.4 8794.48 27681.4 8877.13ZM28642.4 9036.79C28598.2 9095.96 28525 9132.59 28435.8 9132.59C28267.6 9132.59 28172.8 9015.19 28172.8 8877.13C28172.8 8737.19 28261.1 8621.67 28416 8621.67C28547.5 8621.67 28633.9 8710.9 28633.9 8834.87C28633.9 8861.17 28630.2 8885.58 28626.4 8901.55H28294.9C28306.2 8989.83 28360.6 9025.52 28434.8 9025.52C28486.5 9025.52 28531.6 9002.98 28556.9 8969.17L28642.4 9036.79ZM28413.2 8719.35C28352.2 8719.35 28311.8 8753.16 28298.6 8815.15H28516.5C28514.7 8767.25 28479.9 8719.35 28413.2 8719.35ZM28969.8 8877.13C28969.8 8739.07 29060.9 8621.67 29210.2 8621.67C29274.1 8621.67 29320.1 8641.4 29356.8 8678.03V8409.42H29477V9113.81H29356.8V9076.24C29320.1 9112.87 29274.1 9132.59 29210.2 9132.59C29060.9 9132.59 28969.8 9015.19 28969.8 8877.13ZM29094.7 8877.13C29094.7 8959.78 29146.4 9019.89 29227.1 9019.89C29280.7 9019.89 29324.8 8997.35 29356.8 8954.14V8800.12C29324.8 8756.92 29280.7 8734.38 29227.1 8734.38C29146.4 8734.38 29094.7 8794.48 29094.7 8877.13ZM29845.4 8621.67C29999.4 8621.67 30104.6 8735.32 30104.6 8877.13C30104.6 9018.95 29999.4 9132.59 29845.4 9132.59C29691.3 9132.59 29586.1 9018.95 29586.1 8877.13C29586.1 8735.32 29691.3 8621.67 29845.4 8621.67ZM29847.2 9019.89C29923.3 9019.89 29980.6 8958.84 29980.6 8877.13C29980.6 8794.48 29923.3 8734.38 29847.2 8734.38C29768.3 8734.38 29710.1 8794.48 29710.1 8877.13C29710.1 8959.78 29768.3 9019.89 29847.2 9019.89ZM30213.4 9113.81V8640.46H30332.6V8678.03C30365.5 8646.09 30409.7 8621.67 30472.6 8621.67C30574.9 8621.67 30656.7 8692.11 30656.7 8832.05V9113.81H30536.4V8836.75C30536.4 8773.82 30500.8 8734.38 30442.5 8734.38C30382.4 8734.38 30350.5 8774.76 30332.6 8804.82V9113.81H30213.4ZM30792.1 9113.81V8640.46H30911.4V8678.03C30944.2 8646.09 30988.4 8621.67 31051.3 8621.67C31153.7 8621.67 31235.4 8692.11 31235.4 8832.05V9113.81H31115.2V8836.75C31115.2 8773.82 31079.5 8734.38 31021.3 8734.38C30961.1 8734.38 30929.2 8774.76 30911.4 8804.82V9113.81H30792.1ZM31646 8565.32H31531.4L31629.1 8409.42H31758.7L31646 8565.32ZM31806.6 9036.79C31762.5 9095.96 31689.2 9132.59 31600 9132.59C31431.9 9132.59 31337 9015.19 31337 8877.13C31337 8737.19 31425.3 8621.67 31580.3 8621.67C31711.8 8621.67 31798.2 8710.9 31798.2 8834.87C31798.2 8861.17 31794.4 8885.58 31790.6 8901.55H31459.1C31470.4 8989.83 31524.9 9025.52 31599.1 9025.52C31650.7 9025.52 31695.8 9002.98 31721.1 8969.17L31806.6 9036.79ZM31577.4 8719.35C31516.4 8719.35 31476 8753.16 31462.9 8815.15H31680.8C31678.9 8767.25 31644.1 8719.35 31577.4 8719.35ZM32346.8 9036.79C32302.7 9095.96 32229.4 9132.59 32140.2 9132.59C31972.1 9132.59 31877.2 9015.19 31877.2 8877.13C31877.2 8737.19 31965.5 8621.67 32120.5 8621.67C32252 8621.67 32338.4 8710.9 32338.4 8834.87C32338.4 8861.17 32334.6 8885.58 32330.9 8901.55H31999.3C32010.6 8989.83 32065.1 9025.52 32139.3 9025.52C32190.9 9025.52 32236 9002.98 32261.4 8969.17L32346.8 9036.79ZM32117.7 8719.35C32056.6 8719.35 32016.2 8753.16 32003.1 8815.15H32221C32219.1 8767.25 32184.3 8719.35 32117.7 8719.35ZM32407.2 9045.25L32486.1 8973.87C32515.2 9010.5 32549.9 9036.79 32595 9036.79C32633.5 9036.79 32653.2 9014.25 32653.2 8986.08C32653.2 8903.43 32426.9 8934.42 32426.9 8768.19C32426.9 8684.6 32497.3 8621.67 32596 8621.67C32668.3 8621.67 32734 8656.42 32767.8 8702.44L32688.9 8771.94C32664.5 8741.89 32633.5 8717.47 32596.9 8717.47C32559.3 8717.47 32541.5 8738.13 32541.5 8762.55C32541.5 8843.32 32767.8 8815.15 32767.8 8978.56C32765.9 9078.12 32686.1 9132.59 32596.9 9132.59C32512.4 9132.59 32452.3 9098.78 32407.2 9045.25Z" fill="black"/>
<defs>
<clipPath id="clip0_8_812">
<rect width="1536" height="1536" fill="white" transform="translate(13729.9 1144.86) scale(0.93918)"/>
</clipPath>
</defs>
</svg>
