<svg width="9682" height="9960" viewBox="0 0 9682 9960" fill="none" xmlns="http://www.w3.org/2000/svg">
<circle cx="3508" cy="2504" r="2436" fill="#CACAFB" stroke="#666666" stroke-width="128"/>
<path d="M5698 5064L5128 4528C5373.95 4350.46 5479.46 4239.41 5632 4024L6218 4544L5698 5064Z" fill="#F6F6F6" stroke="#666666" stroke-width="128"/>
<path d="M7975.97 8108L5408 5552L6776 4184L9335.97 6728C8866.48 7507.37 8887.97 7532 7975.97 8108Z" fill="#F6F6F6" stroke="#666666" stroke-width="128"/>
<rect y="1097" width="3606" height="3267" rx="250" fill="#FEF4F4"/>
<path d="M584 3217C584 3181.65 555.346 3153 520 3153C484.654 3153 456 3181.65 456 3217H584ZM456 3217V4217H584V3217H456Z" fill="#666666"/>
<path d="M984 2717C984 2681.65 955.346 2653 920 2653C884.654 2653 856 2681.65 856 2717H984ZM856 2717V4217H984V2717H856Z" fill="#666666"/>
<path d="M1384 2217C1384 2181.65 1355.35 2153 1320 2153C1284.65 2153 1256 2181.65 1256 2217H1384ZM1256 2217V4217H1384V2217H1256Z" fill="#666666"/>
<path d="M1784 2717C1784 2681.65 1755.35 2653 1720 2653C1684.65 2653 1656 2681.65 1656 2717H1784ZM1656 2717V4217H1784V2717H1656Z" fill="#666666"/>
<path d="M2184 3217C2184 3181.65 2155.35 3153 2120 3153C2084.65 3153 2056 3181.65 2056 3217H2184ZM2056 3217V4217H2184V3217H2056Z" fill="#666666"/>
<path d="M2584 2717C2584 2681.65 2555.35 2653 2520 2653C2484.65 2653 2456 2681.65 2456 2717H2584ZM2456 2717V4217H2584V2717H2456Z" fill="#666666"/>
<path d="M2984 2517C2984 2481.65 2955.35 2453 2920 2453C2884.65 2453 2856 2481.65 2856 2517H2984ZM2856 2517V4217H2984V2517H2856Z" fill="#666666"/>
<path d="M3384 2217C3384 2181.65 3355.35 2153 3320 2153C3284.65 2153 3256 2181.65 3256 2217H3384ZM3256 2217V4217H3384V2217H3256Z" fill="#666666"/>
<path d="M106 2500L1226 1340L2126 2380L3426 1340M3426 1340H2776M3426 1340V1930" stroke="#666666" stroke-width="128" stroke-linejoin="round"/>
<circle cx="1236" cy="1440" r="236" fill="white" stroke="#666666" stroke-width="128"/>
<circle cx="2166" cy="2260" r="236" fill="white" stroke="#666666" stroke-width="128"/>
<path d="M23 9704L288 9004H474L739 9704H588L521 9522H241L174 9704H23ZM285 9401H477L381 9138L285 9401ZM860.367 9704V9200H987.367V9240C1022.37 9206 1069.37 9180 1136.37 9180C1245.37 9180 1332.37 9255 1332.37 9404V9704H1204.37V9409C1204.37 9342 1166.37 9300 1104.37 9300C1040.37 9300 1006.37 9343 987.367 9375V9704H860.367ZM1618.58 9719C1517.58 9719 1448.58 9661 1448.58 9568C1448.58 9492 1507.58 9435 1615.58 9417L1769.58 9391V9378C1769.58 9325 1729.58 9291 1671.58 9291C1622.58 9291 1584.58 9314 1557.58 9351L1464.58 9280C1509.58 9218 1583.58 9180 1675.58 9180C1821.58 9180 1896.58 9267 1896.58 9378V9704H1769.58V9655C1737.58 9694 1677.58 9719 1618.58 9719ZM1574.58 9562C1574.58 9596 1601.58 9618 1644.58 9618C1702.58 9618 1744.58 9591 1769.58 9551V9480L1649.58 9500C1596.58 9509 1574.58 9531 1574.58 9562ZM2042.01 9704V8954H2169.01V9704H2042.01ZM2547.3 9819C2512.3 9902 2455.3 9954 2359.3 9954C2320.3 9954 2293.3 9948 2269.3 9938V9826C2285.3 9833 2309.3 9838 2331.3 9838C2381.3 9838 2412.3 9821 2433.3 9770L2461.3 9703L2249.3 9200H2390.3L2528.3 9539L2667.3 9200H2801.3L2547.3 9819ZM2821.25 9631L2905.25 9555C2936.25 9594 2973.25 9622 3021.25 9622C3062.25 9622 3083.25 9598 3083.25 9568C3083.25 9480 2842.25 9513 2842.25 9336C2842.25 9247 2917.25 9180 3022.25 9180C3099.25 9180 3169.25 9217 3205.25 9266L3121.25 9340C3095.25 9308 3062.25 9282 3023.25 9282C2983.25 9282 2964.25 9304 2964.25 9330C2964.25 9416 3205.25 9386 3205.25 9560C3203.25 9666 3118.25 9724 3023.25 9724C2933.25 9724 2869.25 9688 2821.25 9631ZM3784.33 9622C3737.33 9685 3659.33 9724 3564.33 9724C3385.33 9724 3284.33 9599 3284.33 9452C3284.33 9303 3378.33 9180 3543.33 9180C3683.33 9180 3775.33 9275 3775.33 9407C3775.33 9435 3771.33 9461 3767.33 9478H3414.33C3426.33 9572 3484.33 9610 3563.33 9610C3618.33 9610 3666.33 9586 3693.33 9550L3784.33 9622ZM3540.33 9284C3475.33 9284 3432.33 9320 3418.33 9386H3650.33C3648.33 9335 3611.33 9284 3540.33 9284ZM4132.96 9452C4132.96 9305 4229.96 9180 4388.96 9180C4456.96 9180 4505.96 9201 4544.96 9240V8954H4672.96V9704H4544.96V9664C4505.96 9703 4456.96 9724 4388.96 9724C4229.96 9724 4132.96 9599 4132.96 9452ZM4265.96 9452C4265.96 9540 4320.96 9604 4406.96 9604C4463.96 9604 4510.96 9580 4544.96 9534V9370C4510.96 9324 4463.96 9300 4406.96 9300C4320.96 9300 4265.96 9364 4265.96 9452ZM5289.21 9622C5242.21 9685 5164.21 9724 5069.21 9724C4890.21 9724 4789.21 9599 4789.21 9452C4789.21 9303 4883.21 9180 5048.21 9180C5188.21 9180 5280.21 9275 5280.21 9407C5280.21 9435 5276.21 9461 5272.21 9478H4919.21C4931.21 9572 4989.21 9610 5068.21 9610C5123.21 9610 5171.21 9586 5198.21 9550L5289.21 9622ZM5045.21 9284C4980.21 9284 4937.21 9320 4923.21 9386H5155.21C5153.21 9335 5116.21 9284 5045.21 9284ZM5637.84 9452C5637.84 9305 5734.84 9180 5893.84 9180C5961.84 9180 6010.84 9201 6049.84 9240V8954H6177.84V9704H6049.84V9664C6010.84 9703 5961.84 9724 5893.84 9724C5734.84 9724 5637.84 9599 5637.84 9452ZM5770.84 9452C5770.84 9540 5825.84 9604 5911.84 9604C5968.84 9604 6015.84 9580 6049.84 9534V9370C6015.84 9324 5968.84 9300 5911.84 9300C5825.84 9300 5770.84 9364 5770.84 9452ZM6570.09 9180C6734.09 9180 6846.09 9301 6846.09 9452C6846.09 9603 6734.09 9724 6570.09 9724C6406.09 9724 6294.09 9603 6294.09 9452C6294.09 9301 6406.09 9180 6570.09 9180ZM6572.09 9604C6653.09 9604 6714.09 9539 6714.09 9452C6714.09 9364 6653.09 9300 6572.09 9300C6488.09 9300 6426.09 9364 6426.09 9452C6426.09 9540 6488.09 9604 6572.09 9604ZM6961.93 9704V9200H7088.93V9240C7123.93 9206 7170.93 9180 7237.93 9180C7346.93 9180 7433.93 9255 7433.93 9404V9704H7305.93V9409C7305.93 9342 7267.93 9300 7205.93 9300C7141.93 9300 7107.93 9343 7088.93 9375V9704H6961.93ZM7578.14 9704V9200H7705.14V9240C7740.14 9206 7787.14 9180 7854.14 9180C7963.14 9180 8050.14 9255 8050.14 9404V9704H7922.14V9409C7922.14 9342 7884.14 9300 7822.14 9300C7758.14 9300 7724.14 9343 7705.14 9375V9704H7578.14ZM8487.35 9120H8365.35L8469.35 8954H8607.35L8487.35 9120ZM8658.35 9622C8611.35 9685 8533.35 9724 8438.35 9724C8259.35 9724 8158.35 9599 8158.35 9452C8158.35 9303 8252.35 9180 8417.35 9180C8557.35 9180 8649.35 9275 8649.35 9407C8649.35 9435 8645.35 9461 8641.35 9478H8288.35C8300.35 9572 8358.35 9610 8437.35 9610C8492.35 9610 8540.35 9586 8567.35 9550L8658.35 9622ZM8414.35 9284C8349.35 9284 8306.35 9320 8292.35 9386H8524.35C8522.35 9335 8485.35 9284 8414.35 9284ZM9233.55 9622C9186.55 9685 9108.55 9724 9013.55 9724C8834.55 9724 8733.55 9599 8733.55 9452C8733.55 9303 8827.55 9180 8992.55 9180C9132.55 9180 9224.55 9275 9224.55 9407C9224.55 9435 9220.55 9461 9216.55 9478H8863.55C8875.55 9572 8933.55 9610 9012.55 9610C9067.55 9610 9115.55 9586 9142.55 9550L9233.55 9622ZM8989.55 9284C8924.55 9284 8881.55 9320 8867.55 9386H9099.55C9097.55 9335 9060.55 9284 8989.55 9284ZM9297.81 9631L9381.81 9555C9412.81 9594 9449.81 9622 9497.81 9622C9538.81 9622 9559.81 9598 9559.81 9568C9559.81 9480 9318.81 9513 9318.81 9336C9318.81 9247 9393.81 9180 9498.81 9180C9575.81 9180 9645.81 9217 9681.81 9266L9597.81 9340C9571.81 9308 9538.81 9282 9499.81 9282C9459.81 9282 9440.81 9304 9440.81 9330C9440.81 9416 9681.81 9386 9681.81 9560C9679.81 9666 9594.81 9724 9499.81 9724C9409.81 9724 9345.81 9688 9297.81 9631Z" fill="black"/>
</svg>
