<svg width="12016" height="9860" viewBox="0 0 12016 9860" fill="none" xmlns="http://www.w3.org/2000/svg">
<path d="M1020 351V7961H10580" stroke="#666666" stroke-width="256" stroke-linecap="round" stroke-linejoin="round"/>
<path d="M1740 1321V2321H2740V1321H1740Z" fill="#FCBFBF" stroke="#666666" stroke-width="128" stroke-linejoin="round"/>
<path d="M1740 2459V7759H2740V2459H1740Z" fill="#8585F6" stroke="#666666" stroke-width="128" stroke-linejoin="round"/>
<path d="M3720 3821V5121H4720V3821H3720Z" fill="#FCBFBF" stroke="#666666" stroke-width="128" stroke-linejoin="round"/>
<path d="M3720 5259V7759H4720V5259H3720Z" fill="#8585F6" stroke="#666666" stroke-width="128" stroke-linejoin="round"/>
<path d="M5700 621V1121H6700V621H5700Z" fill="#FCBFBF" stroke="#666666" stroke-width="128" stroke-linejoin="round"/>
<path d="M5700 1259V7759H6700V1259H5700Z" fill="#8585F6" stroke="#666666" stroke-width="128" stroke-linejoin="round"/>
<path d="M7680 3822V6322H8680V3822H7680Z" fill="#FCBFBF" stroke="#666666" stroke-width="128" stroke-linejoin="round"/>
<path d="M7680 6460V7760H8680V6460H7680Z" fill="#8585F6" stroke="#666666" stroke-width="128" stroke-linejoin="round"/>
<path d="M15 8904H166L373 9451L580 8904H731L466 9604H280L15 8904ZM886.094 9012C841.094 9012 803.094 8974 803.094 8929C803.094 8884 841.094 8846 886.094 8846C931.094 8846 968.094 8884 968.094 8929C968.094 8974 931.094 9012 886.094 9012ZM822.094 9604V9100H949.094V9604H822.094ZM1050.55 9531L1134.55 9455C1165.55 9494 1202.55 9522 1250.55 9522C1291.55 9522 1312.55 9498 1312.55 9468C1312.55 9380 1071.55 9413 1071.55 9236C1071.55 9147 1146.55 9080 1251.55 9080C1328.55 9080 1398.55 9117 1434.55 9166L1350.55 9240C1324.55 9208 1291.55 9182 1252.55 9182C1212.55 9182 1193.55 9204 1193.55 9230C1193.55 9316 1434.55 9286 1434.55 9460C1432.55 9566 1347.55 9624 1252.55 9624C1162.55 9624 1098.55 9588 1050.55 9531ZM1883.59 9386V9100H2011.59V9380C2011.59 9531 1923.59 9624 1775.59 9624C1627.59 9624 1540.59 9531 1540.59 9380V9100H1668.59V9386C1668.59 9459 1706.59 9504 1776.59 9504C1845.59 9504 1883.59 9459 1883.59 9386ZM2284.41 9619C2183.41 9619 2114.41 9561 2114.41 9468C2114.41 9392 2173.41 9335 2281.41 9317L2435.41 9291V9278C2435.41 9225 2395.41 9191 2337.41 9191C2288.41 9191 2250.41 9214 2223.41 9251L2130.41 9180C2175.41 9118 2249.41 9080 2341.41 9080C2487.41 9080 2562.41 9167 2562.41 9278V9604H2435.41V9555C2403.41 9594 2343.41 9619 2284.41 9619ZM2240.41 9462C2240.41 9496 2267.41 9518 2310.41 9518C2368.41 9518 2410.41 9491 2435.41 9451V9380L2315.41 9400C2262.41 9409 2240.41 9431 2240.41 9462ZM2707.84 9604V8854H2834.84V9604H2707.84ZM3051.13 9012C3006.13 9012 2968.13 8974 2968.13 8929C2968.13 8884 3006.13 8846 3051.13 8846C3096.13 8846 3133.13 8884 3133.13 8929C3133.13 8974 3096.13 9012 3051.13 9012ZM2987.13 9604V9100H3114.13V9604H2987.13ZM3215.59 9531L3299.59 9455C3330.59 9494 3367.59 9522 3415.59 9522C3456.59 9522 3477.59 9498 3477.59 9468C3477.59 9380 3236.59 9413 3236.59 9236C3236.59 9147 3311.59 9080 3416.59 9080C3493.59 9080 3563.59 9117 3599.59 9166L3515.59 9240C3489.59 9208 3456.59 9182 3417.59 9182C3377.59 9182 3358.59 9204 3358.59 9230C3358.59 9316 3599.59 9286 3599.59 9460C3597.59 9566 3512.59 9624 3417.59 9624C3327.59 9624 3263.59 9588 3215.59 9531ZM3854.72 9619C3753.72 9619 3684.72 9561 3684.72 9468C3684.72 9392 3743.72 9335 3851.72 9317L4005.72 9291V9278C4005.72 9225 3965.72 9191 3907.72 9191C3858.72 9191 3820.72 9214 3793.72 9251L3700.72 9180C3745.72 9118 3819.72 9080 3911.72 9080C4057.72 9080 4132.72 9167 4132.72 9278V9604H4005.72V9555C3973.72 9594 3913.72 9619 3854.72 9619ZM3810.72 9462C3810.72 9496 3837.72 9518 3880.72 9518C3938.72 9518 3980.72 9491 4005.72 9451V9380L3885.72 9400C3832.72 9409 3810.72 9431 3810.72 9462ZM4310.15 9420V9214H4216.15V9100H4310.15V8974H4438.15V9100H4592.15V9214H4438.15V9420C4438.15 9476 4468.15 9498 4518.15 9498C4553.15 9498 4576.15 9494 4593.15 9487V9598C4568.15 9609 4538.15 9614 4496.15 9614C4370.15 9614 4310.15 9543 4310.15 9420ZM4769.88 9012C4724.88 9012 4686.88 8974 4686.88 8929C4686.88 8884 4724.88 8846 4769.88 8846C4814.88 8846 4851.88 8884 4851.88 8929C4851.88 8974 4814.88 9012 4769.88 9012ZM4705.88 9604V9100H4832.88V9604H4705.88ZM5225.18 9080C5389.18 9080 5501.18 9201 5501.18 9352C5501.18 9503 5389.18 9624 5225.18 9624C5061.18 9624 4949.18 9503 4949.18 9352C4949.18 9201 5061.18 9080 5225.18 9080ZM5227.18 9504C5308.18 9504 5369.18 9439 5369.18 9352C5369.18 9264 5308.18 9200 5227.18 9200C5143.18 9200 5081.18 9264 5081.18 9352C5081.18 9440 5143.18 9504 5227.18 9504ZM5617.02 9604V9100H5744.02V9140C5779.02 9106 5826.02 9080 5893.02 9080C6002.02 9080 6089.02 9155 6089.02 9304V9604H5961.02V9309C5961.02 9242 5923.02 9200 5861.02 9200C5797.02 9200 5763.02 9243 5744.02 9275V9604H5617.02ZM6466.76 9352C6466.76 9205 6563.76 9080 6722.76 9080C6790.76 9080 6839.76 9101 6878.76 9140V8854H7006.76V9604H6878.76V9564C6839.76 9603 6790.76 9624 6722.76 9624C6563.76 9624 6466.76 9499 6466.76 9352ZM6599.76 9352C6599.76 9440 6654.76 9504 6740.76 9504C6797.76 9504 6844.76 9480 6878.76 9434V9270C6844.76 9224 6797.76 9200 6740.76 9200C6654.76 9200 6599.76 9264 6599.76 9352ZM7623.01 9522C7576.01 9585 7498.01 9624 7403.01 9624C7224.01 9624 7123.01 9499 7123.01 9352C7123.01 9203 7217.01 9080 7382.01 9080C7522.01 9080 7614.01 9175 7614.01 9307C7614.01 9335 7610.01 9361 7606.01 9378H7253.01C7265.01 9472 7323.01 9510 7402.01 9510C7457.01 9510 7505.01 9486 7532.01 9450L7623.01 9522ZM7379.01 9184C7314.01 9184 7271.01 9220 7257.01 9286H7489.01C7487.01 9235 7450.01 9184 7379.01 9184ZM7971.64 9352C7971.64 9205 8068.64 9080 8227.64 9080C8295.64 9080 8344.64 9101 8383.64 9140V8854H8511.64V9604H8383.64V9564C8344.64 9603 8295.64 9624 8227.64 9624C8068.64 9624 7971.64 9499 7971.64 9352ZM8104.64 9352C8104.64 9440 8159.64 9504 8245.64 9504C8302.64 9504 8349.64 9480 8383.64 9434V9270C8349.64 9224 8302.64 9200 8245.64 9200C8159.64 9200 8104.64 9264 8104.64 9352ZM8903.89 9080C9067.89 9080 9179.89 9201 9179.89 9352C9179.89 9503 9067.89 9624 8903.89 9624C8739.89 9624 8627.89 9503 8627.89 9352C8627.89 9201 8739.89 9080 8903.89 9080ZM8905.89 9504C8986.89 9504 9047.89 9439 9047.89 9352C9047.89 9264 8986.89 9200 8905.89 9200C8821.89 9200 8759.89 9264 8759.89 9352C8759.89 9440 8821.89 9504 8905.89 9504ZM9295.73 9604V9100H9422.73V9140C9457.73 9106 9504.73 9080 9571.73 9080C9680.73 9080 9767.73 9155 9767.73 9304V9604H9639.73V9309C9639.73 9242 9601.73 9200 9539.73 9200C9475.73 9200 9441.73 9243 9422.73 9275V9604H9295.73ZM9911.94 9604V9100H10038.9V9140C10073.9 9106 10120.9 9080 10187.9 9080C10296.9 9080 10383.9 9155 10383.9 9304V9604H10255.9V9309C10255.9 9242 10217.9 9200 10155.9 9200C10091.9 9200 10057.9 9243 10038.9 9275V9604H9911.94ZM10821.1 9020H10699.1L10803.1 8854H10941.1L10821.1 9020ZM10992.1 9522C10945.1 9585 10867.1 9624 10772.1 9624C10593.1 9624 10492.1 9499 10492.1 9352C10492.1 9203 10586.1 9080 10751.1 9080C10891.1 9080 10983.1 9175 10983.1 9307C10983.1 9335 10979.1 9361 10975.1 9378H10622.1C10634.1 9472 10692.1 9510 10771.1 9510C10826.1 9510 10874.1 9486 10901.1 9450L10992.1 9522ZM10748.1 9184C10683.1 9184 10640.1 9220 10626.1 9286H10858.1C10856.1 9235 10819.1 9184 10748.1 9184ZM11567.3 9522C11520.3 9585 11442.3 9624 11347.3 9624C11168.3 9624 11067.3 9499 11067.3 9352C11067.3 9203 11161.3 9080 11326.3 9080C11466.3 9080 11558.3 9175 11558.3 9307C11558.3 9335 11554.3 9361 11550.3 9378H11197.3C11209.3 9472 11267.3 9510 11346.3 9510C11401.3 9510 11449.3 9486 11476.3 9450L11567.3 9522ZM11323.3 9184C11258.3 9184 11215.3 9220 11201.3 9286H11433.3C11431.3 9235 11394.3 9184 11323.3 9184ZM11631.6 9531L11715.6 9455C11746.6 9494 11783.6 9522 11831.6 9522C11872.6 9522 11893.6 9498 11893.6 9468C11893.6 9380 11652.6 9413 11652.6 9236C11652.6 9147 11727.6 9080 11832.6 9080C11909.6 9080 11979.6 9117 12015.6 9166L11931.6 9240C11905.6 9208 11872.6 9182 11833.6 9182C11793.6 9182 11774.6 9204 11774.6 9230C11774.6 9316 12015.6 9286 12015.6 9460C12013.6 9566 11928.6 9624 11833.6 9624C11743.6 9624 11679.6 9588 11631.6 9531Z" fill="black"/>
</svg>
