<svg width="11476" height="3653" viewBox="0 0 11476 3653" fill="none" xmlns="http://www.w3.org/2000/svg">
<g clip-path="url(#clip0_6_198)">
<path d="M1.625 968H148.825C256.025 968 321.625 1022.4 321.625 1112C321.625 1169.6 292.825 1214.4 244.825 1236.8L396.825 1451.2H280.025L152.025 1256H99.225V1451.2H1.625V968ZM99.225 1051.2V1171.2H155.225C196.825 1171.2 220.825 1148.8 220.825 1110.4C220.825 1073.6 196.825 1051.2 155.225 1051.2H99.225Z" fill="black"/>
<path d="M457.625 967.994H739.225V1051.19H555.225V1163.19H712.025V1246.4H555.225V1368H739.225V1451.2H457.625V967.994ZM553.625 926.394L632.025 833.594H732.825L643.225 926.394H553.625Z" fill="black"/>
<path d="M854.375 968H1014.37C1121.57 968 1185.57 1022.4 1185.57 1112C1185.57 1201.6 1119.97 1256 1014.37 1256H953.575V1451.2H855.975L854.375 968ZM951.975 1051.2V1171.2H1017.57C1059.17 1171.2 1083.17 1148.8 1083.17 1110.4C1083.17 1073.6 1057.57 1051.2 1017.57 1051.2H951.975Z" fill="black"/>
<path d="M1552.02 968H1649.62V1262.4C1649.62 1390.4 1574.42 1465.6 1452.83 1465.6C1331.23 1465.6 1257.62 1388.8 1257.62 1262.4V968H1355.22V1270.4C1355.22 1336 1392.03 1372.8 1452.83 1372.8C1513.63 1372.8 1550.42 1334.4 1550.42 1270.4V968H1552.02Z" fill="black"/>
<path d="M1771.12 968H1908.73C2009.53 968 2070.32 1017.6 2070.32 1099.2C2070.32 1137.6 2052.72 1171.2 2019.12 1195.2C2070.32 1217.6 2099.12 1259.2 2099.12 1310.4C2099.12 1398.4 2030.32 1452.8 1919.92 1452.8H1772.73V968H1771.12ZM1868.73 1051.2V1156.8H1910.33C1947.13 1156.8 1969.52 1137.6 1969.52 1104C1969.52 1072 1948.73 1051.2 1910.33 1051.2H1868.73ZM1868.73 1241.6V1368H1924.73C1971.13 1368 1998.32 1344 1998.32 1304C1998.32 1264 1971.13 1241.6 1924.73 1241.6H1868.73Z" fill="black"/>
<path d="M2200 968H2297.6V1363.2H2481.6V1452.8H2200V968Z" fill="black"/>
<path d="M2568.06 968H2665.66V1452.8H2568.06V968Z" fill="black"/>
<path d="M3308.86 1484.8C3318.46 1484.8 3332.86 1483.2 3344.06 1480V1563.2C3328.06 1569.6 3313.66 1572.8 3292.86 1572.8C3238.46 1572.8 3188.86 1550.4 3140.86 1508.8L3083.26 1457.6C3062.46 1462.4 3040.06 1465.6 3017.66 1465.6C2864.06 1465.6 2760.06 1348.8 2760.06 1209.59C2760.06 1071.99 2864.06 953.594 3017.66 953.594C3169.66 953.594 3273.66 1070.39 3273.66 1209.59C3273.66 1291.19 3238.46 1364.8 3177.66 1411.2L3206.46 1438.4C3244.86 1472 3278.46 1484.8 3308.86 1484.8ZM3172.86 1209.59C3172.86 1116.79 3107.26 1046.39 3017.66 1046.39C2926.46 1046.39 2860.86 1118.39 2860.86 1209.59C2860.86 1302.39 2926.46 1372.8 3017.66 1372.8C3107.26 1372.8 3172.86 1302.39 3172.86 1209.59Z" fill="black"/>
<path d="M3654.46 968H3752.06V1262.4C3752.06 1390.4 3676.86 1465.6 3555.26 1465.6C3433.66 1465.6 3360.06 1388.8 3360.06 1262.4V968H3457.66V1270.4C3457.66 1336 3494.46 1372.8 3555.26 1372.8C3616.06 1372.8 3652.86 1334.4 3652.86 1270.4L3654.46 968Z" fill="black"/>
<path d="M3873.67 968H4155.27V1051.2H3971.27V1163.2H4128.07V1246.4H3971.27V1368H4155.27V1451.2H3873.67V968Z" fill="black"/>
<path d="M1.625 1665.6H283.225V1748.8H99.225V1860.8H256.025V1944H99.225V2148.8H1.625V1665.6Z" fill="black"/>
<path d="M369.625 1665.6H516.825C624.025 1665.6 689.625 1720 689.625 1809.6C689.625 1867.2 660.825 1912 612.825 1934.4L764.825 2148.8H648.025L520.025 1953.6H468.825V2148.8H371.225L369.625 1665.6ZM468.825 1748.8V1870.4H524.825C566.425 1870.4 590.425 1848 590.425 1809.6C590.425 1772.8 566.425 1750.4 524.825 1750.4L468.825 1748.8Z" fill="black"/>
<path d="M969.625 1665.6H1097.62L1281.62 2150.4H1177.62L1131.22 2024H936.025L889.625 2150.4H785.625L969.625 1665.6ZM1099.22 1939.2L1033.62 1756.8L966.425 1939.2H1099.22Z" fill="black"/>
<path d="M1355.12 1665.6H1481.53L1697.52 2012.8V1665.6H1795.12V2150.4H1668.73L1452.73 1803.2V2150.4H1355.12V1665.6Z" fill="black"/>
<path d="M2273.6 2004.8L2350.4 2064C2313.6 2115.2 2254.4 2150.4 2184 2160L2123.2 2260.8H2036.8L2097.6 2158.4C1971.2 2136 1888 2030.4 1888 1907.2C1888 1769.6 1992 1651.2 2145.6 1651.2C2233.6 1651.2 2305.6 1691.2 2348.8 1748.8L2272 1809.6C2244.8 1769.6 2200 1744 2145.6 1744C2054.4 1744 1988.8 1816 1988.8 1907.2C1988.8 2000 2054.4 2070.4 2145.6 2070.4C2203.2 2070.4 2246.4 2044.8 2273.6 2004.8Z" fill="black"/>
<path d="M2555.15 1665.6H2683.15L2867.15 2150.4H2763.15L2716.75 2024H2523.15L2476.75 2150.4H2372.75L2555.15 1665.6ZM2686.35 1939.2L2620.75 1756.8L2555.15 1939.2H2686.35Z" fill="black"/>
<path d="M2942.44 1665.6H3040.04V2150.4H2942.44V1665.6Z" fill="black"/>
<path d="M3203.21 2016C3232.01 2052.8 3270.41 2075.2 3310.41 2075.2C3348.81 2075.2 3372.81 2054.4 3372.81 2019.2C3372.81 1932.8 3152.01 1952 3152.01 1790.4C3152.01 1713.6 3214.41 1649.6 3307.21 1649.6C3379.21 1649.6 3435.21 1681.6 3476.81 1731.2L3404.81 1795.2C3376.01 1758.4 3344.01 1734.4 3307.21 1734.4C3273.61 1734.4 3251.21 1756.8 3251.21 1785.6C3251.21 1872 3472.01 1851.2 3472.01 2016C3470.41 2105.6 3400.01 2161.6 3312.01 2161.6C3230.41 2161.6 3174.41 2131.2 3132.81 2080L3203.21 2016Z" fill="black"/>
<path d="M3576.06 1665.6H3857.66V1748.8H3673.66V1860.8H3830.46V1944H3673.66V2065.6H3857.66V2148.8H3576.06V1665.6Z" fill="black"/>
<path d="M1576.02 3486.4C1588.82 3486.4 1600.02 3496 1595.22 3521.6L1534.42 3536C1545.62 3507.2 1563.22 3486.4 1576.02 3486.4ZM1611.22 3584H1598.42C1582.42 3601.6 1566.42 3616 1550.42 3616C1534.42 3616 1524.82 3606.4 1524.82 3584C1524.82 3574.4 1526.42 3564.8 1528.02 3556.8L1625.62 3524.8C1644.82 3480 1622.42 3459.2 1595.22 3459.2C1548.82 3459.2 1496.02 3537.6 1496.02 3604.8C1496.02 3635.2 1510.42 3652.8 1532.82 3652.8C1560.02 3652.8 1587.22 3627.2 1611.22 3584ZM1590.42 3441.6L1659.22 3377.6V3369.6H1622.42L1579.22 3441.6H1590.42ZM1379.22 3486.4H1411.22L1360.02 3628.8C1355.22 3641.6 1361.62 3652.8 1374.42 3652.8C1403.22 3652.8 1451.22 3624 1468.82 3584H1459.22C1446.42 3598.4 1420.82 3616 1400.02 3620.8L1448.02 3488H1496.02L1502.42 3467.2H1454.42L1472.02 3416H1452.82L1419.22 3467.2L1379.22 3473.6V3486.4ZM1334.42 3480C1337.62 3467.2 1329.62 3459.2 1323.22 3459.2C1294.42 3459.2 1260.82 3484.8 1248.02 3520H1257.62C1267.22 3507.2 1283.22 3492.8 1297.62 3489.6L1243.22 3630.4C1238.42 3643.2 1248.02 3651.2 1254.42 3651.2C1281.62 3651.2 1313.62 3625.6 1326.42 3590.4H1316.82C1307.22 3603.2 1291.22 3617.6 1276.82 3620.8L1334.42 3480ZM1344.02 3409.6C1356.82 3409.6 1368.02 3400 1368.02 3385.6C1368.02 3372.8 1356.82 3361.6 1344.02 3361.6C1331.22 3361.6 1320.02 3372.8 1320.02 3385.6C1321.62 3398.4 1331.22 3409.6 1344.02 3409.6ZM1032.02 3627.2C1025.62 3643.2 1032.02 3652.8 1048.02 3652.8C1057.62 3652.8 1062.42 3649.6 1065.62 3640L1104.02 3540.8C1121.62 3520 1156.82 3496 1171.22 3496C1180.82 3496 1180.82 3504 1172.82 3516.8L1115.22 3627.2C1108.82 3638.4 1116.82 3651.2 1129.62 3651.2C1158.42 3651.2 1192.02 3625.6 1204.82 3590.4H1195.22C1185.62 3603.2 1169.62 3617.6 1155.22 3620.8L1204.82 3520C1211.22 3507.2 1214.42 3494.4 1214.42 3484.8C1214.42 3468.8 1204.82 3457.6 1188.82 3457.6C1164.82 3457.6 1139.22 3484.8 1110.42 3520V3494.4C1110.42 3475.2 1104.02 3459.2 1088.02 3459.2C1076.82 3459.2 1067.22 3468.8 1057.62 3481.6V3484.8C1076.82 3483.2 1084.82 3512 1070.42 3540.8L1032.02 3627.2ZM1032.02 3502.4C1038.42 3480 1035.22 3459.2 1017.62 3459.2C996.825 3459.2 992.025 3475.2 969.625 3521.6V3496C969.625 3476.8 963.225 3460.8 947.225 3460.8C928.025 3460.8 908.825 3491.2 896.025 3521.6H905.625C915.225 3507.2 924.825 3499.2 931.225 3499.2C939.225 3499.2 944.025 3512 931.225 3540.8L892.825 3625.6C886.425 3641.6 892.825 3651.2 908.825 3651.2C918.425 3651.2 923.225 3648 926.425 3638.4L964.825 3539.2C976.025 3526.4 985.625 3515.2 996.825 3502.4H1032.02ZM812.825 3486.4C825.625 3486.4 836.825 3496 832.025 3521.6L771.225 3536C780.825 3507.2 800.025 3486.4 812.825 3486.4ZM846.425 3584H833.625C817.625 3601.6 801.625 3616 785.625 3616C769.625 3616 760.025 3606.4 760.025 3584C760.025 3574.4 761.625 3564.8 763.225 3556.8L860.825 3524.8C880.025 3480 857.625 3459.2 830.425 3459.2C784.025 3459.2 731.225 3537.6 731.225 3604.8C731.225 3635.2 745.625 3652.8 768.025 3652.8C796.825 3652.8 824.025 3627.2 846.425 3584ZM616.025 3486.4H648.025L596.825 3628.8C592.025 3641.6 598.425 3652.8 611.225 3652.8C640.025 3652.8 688.025 3624 705.625 3584H696.025C683.225 3598.4 657.625 3616 636.825 3620.8L684.825 3488H732.825L739.225 3467.2H691.225L708.825 3416H689.625L656.025 3467.2L616.025 3473.6V3486.4ZM436.825 3596.8C436.825 3553.6 484.825 3494.4 512.025 3494.4C518.425 3494.4 523.225 3494.4 528.025 3496L499.225 3571.2C483.225 3590.4 457.625 3616 446.425 3616C440.025 3616 436.825 3611.2 436.825 3596.8ZM585.625 3451.2L571.225 3449.6L555.225 3465.6H552.025C470.425 3465.6 401.625 3556.8 401.625 3622.4C401.625 3641.6 412.825 3651.2 430.425 3651.2C451.225 3651.2 472.025 3620.8 494.425 3588.8L492.825 3600C489.625 3632 499.225 3649.6 516.825 3649.6C536.025 3649.6 555.225 3619.2 568.025 3588.8H558.425C548.825 3603.2 539.225 3611.2 532.825 3611.2C524.825 3611.2 520.025 3598.4 532.825 3569.6L585.625 3451.2ZM412.825 3502.4C419.225 3480 416.025 3459.2 398.425 3459.2C377.625 3459.2 372.825 3475.2 350.425 3521.6V3496C350.425 3476.8 344.025 3460.8 328.025 3460.8C308.825 3460.8 289.625 3491.2 276.825 3521.6H286.425C296.025 3507.2 305.625 3499.2 312.025 3499.2C320.025 3499.2 324.825 3512 312.025 3540.8L273.625 3625.6C267.225 3641.6 273.625 3651.2 289.625 3651.2C299.225 3651.2 304.025 3648 307.225 3638.4L345.625 3539.2C356.825 3526.4 366.425 3515.2 377.625 3502.4H412.825ZM140.825 3646.4L144.025 3635.2C96.025 3625.6 91.225 3625.6 108.825 3574.4L128.025 3521.6H180.825C204.825 3521.6 204.825 3531.2 201.625 3556.8H214.425L246.425 3472H233.625C222.425 3492.8 212.825 3507.2 187.225 3507.2H134.425L161.625 3432C169.625 3408 174.425 3403.2 206.425 3403.2H228.825C262.425 3403.2 265.625 3412.8 265.625 3444.8H278.425L289.625 3387.2H96.025L92.825 3398.4C131.225 3406.4 134.425 3409.6 116.825 3459.2L73.625 3576C56.025 3624 48.025 3628.8 4.825 3636.8L1.625 3648L140.825 3646.4Z" fill="black"/>
<path d="M1100.82 3041.62C1113.62 3041.62 1124.82 3051.22 1120.02 3076.82L1059.22 3091.22C1070.42 3064.02 1088.02 3041.62 1100.82 3041.62ZM1136.02 3140.82H1123.22C1107.22 3158.42 1091.22 3172.82 1075.22 3172.82C1059.22 3172.82 1049.62 3163.22 1049.62 3140.82C1049.62 3131.22 1051.22 3121.62 1052.82 3113.62L1150.42 3081.62C1169.62 3036.82 1147.22 3016.02 1120.02 3016.02C1073.62 3016.02 1020.82 3094.42 1020.82 3161.62C1020.82 3192.02 1035.22 3209.62 1057.62 3209.62C1084.82 3209.62 1112.02 3182.42 1136.02 3140.82ZM1115.22 2998.42L1184.02 2934.42V2926.42H1147.22L1104.02 2998.42H1115.22ZM904.025 3043.22H936.025L884.825 3185.62C880.025 3198.42 886.425 3209.62 899.225 3209.62C928.025 3209.62 976.025 3180.82 993.625 3140.82H984.025C971.225 3155.22 945.625 3172.82 924.825 3177.62L972.825 3044.82H1020.82L1027.22 3024.02H979.225L996.825 2972.82H977.625L944.025 3024.02L904.025 3030.42V3043.22ZM859.225 3036.82C862.425 3024.02 854.425 3016.02 848.025 3016.02C819.225 3016.02 785.625 3041.62 772.825 3076.82H782.425C792.025 3064.02 808.025 3049.62 822.425 3046.42L768.025 3187.22C763.225 3200.02 772.825 3208.02 779.225 3208.02C806.425 3208.02 838.425 3182.42 851.225 3147.22H841.625C832.025 3160.02 816.025 3174.42 801.625 3177.62L859.225 3036.82ZM868.825 2966.42C881.625 2966.42 892.825 2956.82 892.825 2942.42C892.825 2929.62 881.625 2918.42 868.825 2918.42C856.025 2918.42 844.825 2929.62 844.825 2942.42C846.425 2955.22 856.025 2966.42 868.825 2966.42ZM680.025 3177.62L779.225 2918.42L776.025 2915.22L713.625 2921.62V2929.62L726.425 2939.22C737.625 2947.22 734.425 2955.22 723.225 2982.42L646.425 3185.62C640.025 3196.82 648.025 3209.62 660.825 3209.62C689.625 3209.62 720.025 3184.02 732.825 3148.82H723.225C713.625 3161.62 696.025 3176.02 680.025 3177.62ZM492.825 3153.62C492.825 3110.42 540.825 3051.22 568.025 3051.22C574.425 3051.22 579.225 3051.22 584.025 3052.82L555.225 3128.02C539.225 3147.22 513.625 3172.82 502.425 3172.82C497.625 3172.82 492.825 3166.42 492.825 3153.62ZM641.625 3008.02L627.225 3006.42L611.225 3022.42H608.025C526.425 3022.42 457.625 3113.62 457.625 3179.22C457.625 3198.42 468.825 3208.02 486.425 3208.02C507.225 3208.02 528.025 3177.62 550.425 3145.62L548.825 3156.82C545.625 3188.82 555.225 3206.42 572.825 3206.42C592.025 3206.42 611.225 3176.02 624.025 3145.62H614.425C604.825 3160.02 595.225 3168.02 588.825 3168.02C580.825 3168.02 576.025 3155.22 588.825 3126.42L641.625 3008.02ZM280.025 3243.22C280.025 3224.02 297.625 3212.82 324.825 3201.62C332.825 3206.42 345.625 3211.22 363.225 3216.02C390.425 3225.62 400.025 3228.82 400.025 3236.82C400.025 3254.42 371.225 3267.22 331.225 3267.22C297.625 3268.82 280.025 3260.82 280.025 3243.22ZM353.625 3129.62C342.425 3129.62 337.625 3120.02 337.625 3108.82C337.625 3076.82 355.225 3030.42 380.825 3030.42C392.025 3030.42 396.825 3040.02 396.825 3051.22C398.425 3081.62 380.825 3129.62 353.625 3129.62ZM430.425 3225.62C430.425 3203.22 409.625 3195.22 377.625 3184.02C348.825 3176.02 336.025 3172.82 336.025 3163.22C336.025 3155.22 342.425 3147.22 353.625 3140.82C400.025 3137.62 430.425 3096.02 430.425 3060.82C430.425 3052.82 428.825 3046.42 427.225 3041.62H467.225L473.625 3020.82H411.225C403.225 3016.02 395.225 3014.42 385.625 3014.42C336.025 3014.42 304.025 3057.62 304.025 3092.82C304.025 3120.02 321.625 3136.02 342.425 3140.82C320.025 3150.42 307.225 3163.22 307.225 3177.62C307.225 3185.62 310.425 3192.02 316.825 3196.82C264.025 3212.82 243.225 3230.42 243.225 3256.02C243.225 3280.02 275.225 3291.22 313.625 3291.22C377.625 3291.22 430.425 3256.02 430.425 3225.62ZM182.425 3073.62C206.425 3073.62 206.425 3083.22 203.225 3108.82H216.025L248.025 3024.02H235.225C224.025 3044.82 214.425 3059.22 188.825 3059.22H136.025L161.625 2987.22C169.625 2963.22 174.425 2958.42 206.425 2958.42H228.825C262.425 2958.42 265.625 2968.02 265.625 3000.02H278.425L289.625 2942.42H96.025L92.825 2953.62C131.225 2961.62 134.425 2964.82 116.825 3014.42L73.625 3131.22C56.025 3179.22 48.025 3184.02 4.825 3192.02L1.625 3203.22H219.225L257.625 3140.82H243.225C217.625 3164.82 187.225 3187.22 144.025 3187.22C86.425 3187.22 91.225 3184.02 110.425 3131.22L131.225 3075.22L182.425 3073.62ZM211.225 2924.82L280.025 2876.82V2868.82H238.425L200.025 2923.22H211.225V2924.82Z" fill="black"/>
<path d="M1078.42 2598.41C1091.22 2598.41 1102.42 2608.01 1097.62 2633.61L1036.82 2648.01C1046.42 2619.21 1064.02 2598.41 1078.42 2598.41ZM1112.02 2697.62H1099.22C1083.22 2715.22 1067.22 2729.62 1051.22 2729.62C1035.22 2729.62 1025.62 2720.02 1025.62 2697.62C1025.62 2688.02 1027.22 2678.41 1028.82 2670.41L1126.42 2638.41C1145.62 2593.61 1123.22 2572.81 1096.02 2572.81C1049.62 2572.81 996.825 2651.21 996.825 2718.41C996.825 2748.82 1011.22 2766.42 1033.62 2766.42C1062.42 2764.82 1089.62 2739.22 1112.02 2697.62ZM1092.82 2553.61L1161.62 2489.61V2481.61H1124.82L1081.62 2553.61H1092.82ZM889.625 2600.01H915.225L864.025 2742.42C859.225 2755.22 865.625 2766.42 878.425 2766.42C907.225 2766.42 955.225 2737.62 972.825 2697.62H963.225C950.425 2712.02 924.825 2729.61 904.025 2734.41L952.025 2601.61H1000.02L1006.42 2580.81H958.425L976.025 2529.61H956.825L923.225 2580.81L889.625 2587.21V2600.01ZM864.025 2616.01C870.425 2593.61 867.225 2572.81 849.625 2572.81C828.825 2572.81 824.025 2588.81 801.625 2635.21V2609.61C801.625 2590.41 795.225 2574.41 779.225 2574.41C760.025 2574.41 740.825 2604.81 728.025 2635.21H736.025C745.625 2620.81 755.225 2612.81 761.625 2612.81C769.625 2612.81 774.425 2625.61 761.625 2654.41L723.225 2739.22C716.825 2755.22 723.225 2764.82 739.225 2764.82C748.825 2764.82 753.625 2761.62 756.825 2752.02L795.225 2652.81C806.425 2640.01 816.025 2628.81 827.225 2616.01H864.025ZM646.425 2598.41C659.225 2598.41 670.425 2608.01 665.625 2633.61L604.825 2648.01C614.425 2619.21 632.025 2598.41 646.425 2598.41ZM680.025 2697.62H667.225C651.225 2715.22 635.225 2729.62 619.225 2729.62C603.225 2729.62 593.625 2720.02 593.625 2697.62C593.625 2688.02 595.225 2678.41 596.825 2670.41L694.425 2638.41C713.625 2593.61 691.225 2572.81 664.025 2572.81C617.625 2572.81 564.825 2651.21 564.825 2718.41C564.825 2748.82 579.225 2766.42 601.625 2766.42C628.825 2764.82 657.625 2739.22 680.025 2697.62ZM438.425 2736.02C428.825 2736.02 414.425 2726.42 414.425 2720.02C414.425 2716.82 419.225 2707.22 424.025 2692.81L440.025 2651.21C457.625 2630.41 483.225 2609.61 497.625 2609.61C507.225 2609.61 513.625 2616.01 513.625 2628.81C513.625 2665.61 478.425 2736.02 438.425 2736.02ZM550.425 2611.21C550.425 2582.41 539.225 2571.21 520.025 2571.21C494.425 2571.21 472.025 2596.81 448.025 2628.81L507.225 2473.61L504.025 2470.41L441.625 2476.81V2484.81L454.425 2494.41C465.625 2502.41 462.425 2512.01 451.225 2537.61L387.225 2702.41C382.425 2715.21 377.625 2728.02 377.625 2732.82C377.625 2750.42 400.025 2766.42 422.425 2766.42C470.425 2764.82 550.425 2678.41 550.425 2611.21ZM356.825 2593.61C360.025 2580.81 352.025 2572.81 345.625 2572.81C316.825 2572.81 283.225 2598.41 270.425 2633.61H280.025C289.625 2620.81 305.625 2606.41 320.025 2603.21L265.625 2744.02C260.825 2756.82 270.425 2764.82 276.825 2764.82C304.025 2764.82 336.025 2739.22 348.825 2704.01H339.225C329.625 2716.82 313.625 2731.21 299.225 2734.41L356.825 2593.61ZM368.025 2521.61C380.825 2521.61 392.025 2512.01 392.025 2497.61C392.025 2484.81 380.825 2473.61 368.025 2473.61C355.225 2473.61 344.025 2484.81 344.025 2497.61C344.025 2512.01 353.625 2521.61 368.025 2521.61ZM224.025 2499.21H94.425L91.225 2510.41C129.625 2518.41 132.825 2521.61 115.225 2571.21L73.625 2688.01C56.025 2736.02 48.025 2740.82 4.825 2748.82L1.625 2760.02H198.425L241.625 2684.81H227.225C203.225 2712.02 174.425 2744.02 131.225 2744.02C97.625 2744.02 94.425 2737.62 112.025 2688.01L153.625 2571.21C171.225 2523.21 179.225 2518.41 222.425 2510.41L224.025 2499.21Z" fill="black"/>
<path d="M731.2 569.602C737.6 563.202 745.6 555.202 752 547.202C764.8 532.802 777.6 518.402 792 505.602C796.8 500.802 801.6 497.602 804.8 494.402C806.4 492.802 806.4 491.202 808 489.602C801.6 492.802 798.4 497.602 792 499.202C790.4 499.202 788.8 497.602 790.4 496.002C795.2 492.802 798.4 489.602 803.2 486.402C803.2 486.402 803.2 486.402 801.6 486.402C800 486.402 800 484.802 800 483.202C784 480.002 772.8 491.202 761.6 500.802C758.4 502.402 756.8 499.202 755.2 499.202C737.6 505.602 723.2 521.602 705.6 528.002C705.6 526.402 705.6 526.402 705.6 524.802C697.6 528.002 691.2 531.202 683.2 532.802C672 536.002 662.4 534.402 652.8 534.402C638.4 536.002 624 539.202 608 542.402H606.4C598.4 544.002 590.4 547.202 584 552.002C584 552.002 584 552.002 582.4 552.002L580.8 553.602C577.6 556.802 576 558.402 572.8 561.602C564.8 564.802 560 572.802 552 577.602H550.4C544 584.002 537.6 590.402 531.2 596.802C531.2 596.802 529.6 596.802 528 596.802C526.4 596.802 528 596.802 528 595.202C529.6 593.602 529.6 592.002 531.2 590.402C532.8 588.802 532.8 587.202 534.4 584.002C536 580.802 537.6 579.202 539.2 576.002V574.402H537.6C544 568.002 550.4 563.202 558.4 558.402C556.8 558.402 556.8 558.402 556.8 556.802C556.8 555.202 558.4 555.202 558.4 553.602C558.4 553.602 558.4 553.602 558.4 552.002C558.4 552.002 558.4 552.002 556.8 550.402C555.2 552.002 552 553.602 550.4 553.602C547.2 556.802 545.6 561.602 540.8 561.602H539.2H537.6C537.6 561.602 537.6 561.602 537.6 560.002C537.6 560.002 537.6 560.002 537.6 558.402C537.6 558.402 537.6 558.402 537.6 556.802C537.6 556.802 537.6 555.202 539.2 555.202C539.2 555.202 539.2 555.202 539.2 553.602C539.2 552.002 540.8 552.002 540.8 550.402V548.802L542.4 547.202C542.4 545.602 542.4 545.602 540.8 545.602C542.4 542.402 545.6 540.802 548.8 537.602C553.6 536.002 558.4 532.802 563.2 529.602L564.8 528.002C558.4 529.602 552 532.802 545.6 537.602C545.6 537.602 544 537.602 544 539.202C544 539.202 542.4 539.202 540.8 537.602C540.8 537.602 540.8 537.602 540.8 536.002C542.4 532.802 545.6 532.802 548.8 529.602C550.4 529.602 552 529.602 552 531.202C590.4 500.802 644.8 508.802 689.6 492.802C692.8 489.602 697.6 488.002 700.8 484.802C707.2 481.602 712 476.802 718.4 472.002C728 464.002 736 456.002 739.2 444.802C739.2 443.202 737.6 441.602 737.6 441.602C721.6 459.202 704 472.002 684.8 481.602C659.2 494.402 632 492.802 604.8 496.002C606.4 492.802 608 492.802 611.2 492.802C611.2 489.602 614.4 488.002 616 484.802H619.2C620.8 484.802 620.8 481.602 622.4 481.602C625.6 481.602 628.8 480.002 627.2 480.002C624 475.202 616 483.202 609.6 480.002C612.8 476.802 611.2 473.602 612.8 472.002H617.6C617.6 468.802 620.8 467.202 620.8 467.202C638.4 456.002 656 448.002 673.6 438.402C670.4 438.402 667.2 441.602 664 440.002C667.2 440.002 664 436.801 667.2 436.801C680 433.601 691.2 425.601 705.6 420.801C700.8 420.801 697.6 424.001 692.8 420.801C696 419.201 696 417.601 700.8 417.601C700.8 416.001 700.8 414.401 700.8 414.401C700.8 412.801 702.4 412.801 704 412.801C702.4 412.801 700.8 411.201 700.8 411.201C702.4 408.001 705.6 409.601 708.8 408.001C707.2 408.001 705.6 408.001 705.6 406.401C708.8 401.601 715.2 400.001 721.6 398.401C720 395.201 716.8 398.401 716.8 395.201C716.8 393.601 718.4 393.601 720 393.601C718.4 393.601 718.4 393.601 716.8 393.601C713.6 392.001 715.2 390.401 715.2 388.801C723.2 380.801 723.2 369.601 726.4 360.001C724.8 360.001 723.2 360.001 723.2 358.401C710.4 371.201 691.2 376.001 673.6 380.801C672 380.801 668.8 380.801 667.2 380.801C660.8 384.001 652.8 384.001 646.4 379.201C641.6 376.001 638.4 372.801 633.6 369.601C624 363.201 614.4 358.401 603.2 355.201C576 363.201 544 358.401 512 360.001C524.8 352.001 540.8 352.001 555.2 347.201C576 340.801 595.2 334.401 617.6 334.401C614.4 332.801 609.6 334.401 604.8 334.401C587.2 332.801 571.2 337.601 552 342.401C539.2 345.601 529.6 350.401 516.8 352.001C508.8 355.201 505.6 361.601 497.6 360.001V356.801C510.4 342.401 524.8 328.001 544 326.401C566.4 323.201 587.2 326.401 608 329.601C624 331.201 638.4 334.401 654.4 337.601C660.8 337.601 662.4 347.201 667.2 348.801C675.2 352.001 681.6 348.801 689.6 353.601C689.6 350.401 688 348.801 689.6 345.601C694.4 340.801 700.8 347.201 705.6 344.001C715.2 337.601 697.6 326.401 692.8 318.401C692.8 316.801 694.4 315.201 694.4 315.201C704 323.201 712 332.801 723.2 339.201C729.6 342.401 744 345.601 740.8 337.601C734.4 324.801 723.2 313.601 713.6 300.801C713.6 299.201 713.6 297.601 713.6 296.001C710.4 296.001 710.4 294.401 710.4 292.801C710.4 291.201 710.4 289.601 710.4 288.001C705.6 284.801 707.2 280.001 704 276.801C700.8 270.401 702.4 262.401 700.8 254.401C699.2 246.401 697.6 241.601 696 233.601C692.8 212.801 688 195.201 684.8 176.001C681.6 153.601 697.6 134.4 708.8 113.6C716.8 99.2003 726.4 84.8003 742.4 75.2003C745.6 60.8002 755.2 48.0002 764.8 36.8001C774.4 25.6001 790.4 17.6001 801.6 12.8C819.2 4.80002 833.6 0 833.6 0H0V643.202H590.4C612.8 627.202 636.8 619.202 668.8 603.202C684.8 598.402 718.4 582.402 731.2 569.602ZM544 483.202C540.8 483.202 536 484.802 537.6 481.602C539.2 475.202 547.2 475.202 552 473.602C555.2 472.002 558.4 470.402 560 470.402C563.2 473.602 566.4 473.602 568 475.202C561.6 483.202 552 480.002 544 483.202ZM358.4 456.002C358.4 456.002 356.8 454.402 356.8 452.802C372.8 432.001 384 412.801 395.2 390.401C411.2 382.401 424 369.601 436.8 356.801C457.6 334.401 480 315.201 505.6 304.001C515.2 300.801 528 300.801 537.6 305.601C534.4 310.401 528 308.801 523.2 313.601C521.6 313.601 520 313.601 520 312.001C521.6 310.401 521.6 308.801 521.6 308.801C508.8 321.601 492.8 328.001 483.2 344.001C475.2 356.801 470.4 371.201 456 376.001C451.2 377.601 457.6 372.801 454.4 372.801C414.4 395.201 387.2 424.001 358.4 456.002ZM459.2 376.001C457.6 379.201 456 379.201 456 380.801C454.4 384.001 452.8 384.001 451.2 385.601C449.6 385.601 448 385.601 448 384.001C449.6 379.201 452.8 374.401 457.6 372.801C459.2 374.401 459.2 374.401 459.2 376.001ZM515.2 558.402C515.2 560.002 513.6 561.602 512 561.602C513.6 561.602 515.2 563.202 513.6 563.202C510.4 566.402 508.8 568.002 504 569.602H502.4C500.8 571.202 499.2 572.802 497.6 574.402C496 576.002 489.6 574.402 491.2 572.802C494.4 569.602 497.6 566.402 500.8 564.802C502.4 563.202 504 561.602 505.6 560.002L508.8 556.802C510.4 556.802 516.8 555.202 515.2 558.402ZM492.8 548.802C488 552.002 483.2 555.202 478.4 558.402C473.6 561.602 467.2 563.202 462.4 566.402C457.6 569.602 460.8 564.802 460.8 566.402C456 569.602 452.8 572.802 448 576.002L446.4 577.602L444.8 579.202C443.2 580.802 443.2 580.802 441.6 582.402L440 584.002C440 584.002 436.8 584.002 436.8 582.402C436.8 580.802 435.2 582.402 435.2 584.002C435.2 584.002 433.6 584.002 433.6 585.602C433.6 585.602 433.6 585.602 432 585.602C432 585.602 432 585.602 430.4 585.602C428.8 587.202 427.2 588.802 425.6 588.802C422.4 590.402 420.8 593.602 419.2 596.802C417.6 600.002 419.2 598.402 417.6 598.402C416 598.402 417.6 598.402 416 598.402C414.4 598.402 416 596.802 414.4 596.802C416 595.202 417.6 593.602 417.6 592.002L419.2 590.402C419.2 588.802 420.8 588.802 420.8 587.202C420.8 587.202 420.8 587.202 420.8 585.602C422.4 584.002 424 582.402 424 580.802C424 579.202 425.6 579.202 425.6 577.602C425.6 577.602 427.2 576.002 427.2 574.402C427.2 572.802 428.8 572.802 428.8 571.202V569.602V568.002C428.8 568.002 428.8 568.002 428.8 566.402C430.4 564.802 432 561.602 433.6 560.002C432 561.602 430.4 563.202 428.8 563.202C427.2 564.802 425.6 563.202 427.2 561.602C428.8 561.602 428.8 560.002 430.4 558.402C432 556.802 433.6 553.602 436.8 552.002C438.4 550.402 440 550.402 440 548.802C441.6 547.202 441.6 547.202 443.2 545.602C454.4 534.402 473.6 534.402 489.6 528.002C496 524.802 502.4 529.602 508.8 528.002C512 528.002 516.8 528.002 520 531.202C513.6 536.002 504 542.402 492.8 548.802ZM518.4 464.002C516.8 462.402 521.6 464.002 523.2 460.802C520 460.802 516.8 460.802 513.6 460.802C512 460.802 512 459.202 512 457.602C505.6 459.202 499.2 460.802 492.8 462.402C484.8 465.602 476.8 470.402 467.2 473.602C454.4 478.402 443.2 489.602 428.8 494.402C427.2 494.402 427.2 492.802 427.2 491.202C428.8 488.002 433.6 486.402 435.2 483.202C435.2 481.602 435.2 480.002 433.6 480.002C443.2 467.202 456 459.202 468.8 448.002C468.8 446.402 468.8 444.802 468.8 444.802C472 440.002 478.4 436.802 481.6 432.001C483.2 428.801 488 424.001 494.4 420.801C492.8 419.201 491.2 419.201 491.2 417.601C486.4 417.601 481.6 420.801 476.8 416.001C478.4 414.401 481.6 412.801 484.8 411.201C483.2 411.201 483.2 411.201 481.6 409.601C480 406.401 483.2 404.801 488 403.201C492.8 401.601 499.2 401.601 502.4 398.401C494.4 396.801 484.8 401.601 475.2 395.201C481.6 379.201 491.2 366.401 505.6 358.401C507.2 358.401 508.8 358.401 508.8 360.001C508.8 366.401 505.6 371.201 499.2 372.801C508.8 376.001 518.4 376.001 528 380.801C526.4 384.001 524.8 382.401 523.2 382.401C529.6 385.601 536 384.001 542.4 388.801C539.2 392.001 534.4 388.801 531.2 388.801C569.6 400.001 609.6 408.001 640 432.001C612.8 444.802 585.6 451.202 556.8 457.602C553.6 457.602 550.4 457.602 547.2 456.002C547.2 457.602 547.2 459.202 545.6 459.202C540.8 459.202 537.6 459.202 532.8 462.402C529.6 465.602 521.6 467.202 518.4 464.002Z" fill="#000091"/>
<path d="M1768 3.1875H1076.8C1076.8 3.1875 1078.4 3.1875 1083.2 6.38751C1089.6 9.58752 1096 12.7875 1100.8 15.9875C1110.4 20.7876 1118.4 27.1876 1123.2 35.1876C1126.4 38.3876 1129.6 46.3876 1126.4 51.1877C1123.2 57.5877 1123.2 67.1877 1116.8 68.7877C1108.8 71.9877 1099.2 71.9877 1091.2 71.9877C1086.4 71.9877 1081.6 70.3877 1076.8 68.7877C1094.4 76.7878 1112 84.7878 1124.8 100.788C1126.4 103.988 1131.2 103.988 1136 103.988V108.788C1132.8 111.988 1131.2 111.988 1132.8 116.788H1136C1142.4 113.588 1140.8 102.388 1148.8 105.588C1155.2 108.788 1156.8 118.388 1153.6 123.188C1148.8 127.988 1144 131.188 1139.2 135.988C1137.6 139.188 1137.6 142.388 1139.2 143.988C1142.4 148.788 1144 153.588 1145.6 158.388C1148.8 166.388 1150.4 175.988 1153.6 185.588C1158.4 203.188 1163.2 222.388 1161.6 239.988C1161.6 249.588 1156.8 257.588 1160 267.188C1163.2 276.788 1168 284.788 1172.8 292.788C1177.6 300.789 1182.4 305.589 1185.6 311.989C1193.6 324.789 1206.4 335.989 1200 350.389C1196.8 358.389 1182.4 358.389 1174.4 363.189C1166.4 369.589 1172.8 379.189 1177.6 385.589C1184 396.789 1169.6 403.189 1161.6 407.989C1164.8 411.189 1169.6 411.189 1169.6 412.789C1171.2 419.189 1177.6 422.389 1172.8 428.789C1168 436.789 1153.6 439.989 1160 451.189C1164.8 459.189 1161.6 468.789 1158.4 478.389C1155.2 489.589 1145.6 494.389 1136 495.989C1128 499.189 1120 499.189 1113.6 497.589C1110.4 495.989 1108.8 494.389 1105.6 494.389C1084.8 491.189 1064 486.389 1043.2 486.389C1036.8 487.989 1030.4 489.589 1025.6 491.189C1020.8 495.989 1016 499.189 1011.2 503.989C1009.6 505.589 1009.6 505.589 1008 507.189L1006.4 508.789C1006.4 508.789 1006.4 510.389 1004.8 510.389C1001.6 515.189 998.396 519.989 995.196 524.789V526.389C995.196 526.389 995.196 527.989 993.596 527.989C990.396 535.989 987.196 542.389 983.996 550.389C975.996 577.589 979.196 601.59 985.596 607.99C987.196 609.59 1025.6 620.79 1052.8 633.59C1065.6 638.39 1073.6 643.19 1081.6 647.99H1760V3.1875H1768Z" fill="#E1000F"/>
<path d="M1116.8 238.413C1121.6 240.013 1129.6 240.013 1129.6 241.613C1126.4 251.213 1112 254.413 1105.6 264.013H1102.4C1099.2 267.213 1099.2 272.013 1096 272.013C1092.8 270.413 1088 272.013 1084.8 273.613C1089.6 278.413 1096 281.613 1102.4 281.613C1104 281.613 1105.6 284.813 1105.6 286.413C1105.6 286.413 1107.2 286.413 1108.8 284.813C1110.4 284.813 1112 284.813 1112 286.413V291.213C1108.8 296.013 1102.4 294.413 1097.6 294.413C1107.2 297.613 1116.8 297.613 1124.8 294.413C1132.8 291.213 1124.8 280.013 1129.6 273.613C1126.4 273.613 1129.6 270.413 1126.4 270.413C1129.6 267.213 1131.2 264.013 1134.4 262.413C1137.6 262.413 1140.8 260.813 1142.4 259.213C1142.4 256.013 1137.6 256.013 1139.2 252.813C1147.2 248.013 1152 240.013 1150.4 233.613C1148.8 230.413 1139.2 230.413 1132.8 227.213C1126.4 224.013 1120 227.213 1112 228.813C1105.6 228.813 1099.2 232.013 1094.4 233.613C1086.4 236.813 1078.4 241.613 1072 246.413C1080 243.213 1089.6 241.613 1099.2 238.413C1104 238.413 1110.4 235.213 1116.8 238.413Z" fill="#9D9D9C"/>
</g>
<path d="M5642.31 2162.91V1625.31H5819.72C5937.99 1625.31 6010.18 1685.98 6010.18 1785.82C6010.18 1884.89 5937.99 1945.56 5819.72 1945.56H5751.36V2162.91H5642.31ZM5824.32 1715.93H5751.36V1854.94H5824.32C5870.4 1854.94 5898.05 1828.06 5898.05 1784.28C5898.05 1743.58 5870.4 1715.93 5824.32 1715.93ZM6085.82 2162.91V1775.83H6183.36V1814.23C6208.7 1788.12 6241.73 1768.15 6285.5 1768.15C6298.56 1768.15 6310.08 1770.46 6319.29 1773.53V1869.53C6307.01 1866.46 6293.95 1864.15 6276.29 1864.15C6228.67 1864.15 6197.95 1890.27 6183.36 1914.84V2162.91H6085.82ZM6565.64 1760.47C6691.59 1760.47 6777.61 1853.4 6777.61 1969.37C6777.61 2085.34 6691.59 2178.27 6565.64 2178.27C6439.69 2178.27 6353.67 2085.34 6353.67 1969.37C6353.67 1853.4 6439.69 1760.47 6565.64 1760.47ZM6567.18 2086.11C6629.39 2086.11 6676.23 2036.19 6676.23 1969.37C6676.23 1901.79 6629.39 1852.63 6567.18 1852.63C6502.67 1852.63 6455.05 1901.79 6455.05 1969.37C6455.05 2036.95 6502.67 2086.11 6567.18 2086.11ZM6822.92 2230.49C6822.92 2192.09 6842.12 2161.37 6876.68 2136.03C6861.32 2120.67 6852.87 2099.93 6852.87 2079.96C6852.87 2049.24 6865.93 2024.67 6895.11 2003.16C6861.32 1977.82 6842.89 1939.42 6842.89 1896.41C6842.89 1821.15 6901.26 1760.47 6998.03 1760.47C7027.98 1760.47 7054.09 1765.85 7076.36 1775.83H7217.68V1858.78H7149.32C7153.16 1871.07 7154.7 1883.35 7154.7 1896.41C7154.7 1972.44 7097.87 2033.88 6998.03 2033.88C6984.97 2033.88 6972.68 2033.11 6961.16 2030.81C6952.71 2038.49 6948.11 2046.94 6948.11 2055.39C6948.11 2070.75 6956.55 2078.43 6974.22 2078.43H7071.76C7169.29 2078.43 7222.28 2130.65 7222.28 2202.84C7222.28 2288.86 7140.11 2354.91 7019.53 2354.91C6895.88 2354.91 6822.92 2311.9 6822.92 2230.49ZM6999.56 1960.15C7040.27 1960.15 7066.38 1934.81 7066.38 1896.41C7066.38 1858.01 7040.27 1833.43 6999.56 1833.43C6957.32 1833.43 6931.98 1858.78 6931.98 1896.41C6931.98 1934.81 6957.32 1960.15 6999.56 1960.15ZM6915.08 2216.67C6915.08 2253.53 6950.41 2276.57 7018.76 2276.57C7089.42 2276.57 7125.52 2250.46 7125.52 2212.06C7125.52 2182.87 7107.85 2162.14 7061 2162.14H6941.19C6926.6 2175.96 6915.08 2192.86 6915.08 2216.67ZM7289.57 2162.91V1775.83H7387.11V1814.23C7412.45 1788.12 7445.48 1768.15 7489.25 1768.15C7502.31 1768.15 7513.83 1770.46 7523.05 1773.53V1869.53C7510.76 1866.46 7497.7 1864.15 7480.04 1864.15C7432.42 1864.15 7401.7 1890.27 7387.11 1914.84V2162.91H7289.57ZM7691.88 2174.43C7614.31 2174.43 7561.32 2129.88 7561.32 2058.46C7561.32 2000.09 7606.63 1956.31 7689.58 1942.49L7807.85 1922.52V1912.54C7807.85 1871.83 7777.13 1845.72 7732.58 1845.72C7694.95 1845.72 7665.77 1863.39 7645.03 1891.8L7573.61 1837.27C7608.17 1789.66 7665 1760.47 7735.66 1760.47C7847.78 1760.47 7905.38 1827.29 7905.38 1912.54V2162.91H7807.85V2125.27C7783.27 2155.23 7737.19 2174.43 7691.88 2174.43ZM7658.09 2053.85C7658.09 2079.96 7678.82 2096.86 7711.85 2096.86C7756.39 2096.86 7788.65 2076.12 7807.85 2045.4V1990.87L7715.69 2006.23C7674.98 2013.15 7658.09 2030.04 7658.09 2053.85ZM8017.07 2162.91V1775.83H8114.61V1805.02C8140.72 1779.67 8173.75 1760.47 8221.36 1760.47C8270.51 1760.47 8313.52 1781.98 8338.87 1823.45C8366.51 1789.66 8403.38 1760.47 8468.66 1760.47C8548.53 1760.47 8611.51 1815.77 8611.51 1924.83V2162.91H8513.2V1928.67C8513.2 1881.82 8487.86 1852.63 8444.08 1852.63C8401.84 1852.63 8378.8 1881.82 8363.44 1907.93C8364.21 1913.31 8364.21 1918.68 8364.21 1924.83V2162.91H8265.91V1928.67C8265.91 1881.82 8240.56 1852.63 8196.79 1852.63C8152.24 1852.63 8129.2 1885.66 8114.61 1910.23V2162.91H8017.07ZM8722.83 2162.91V1775.83H8820.36V1805.02C8846.47 1779.67 8879.5 1760.47 8927.11 1760.47C8976.27 1760.47 9019.27 1781.98 9044.62 1823.45C9072.27 1789.66 9109.13 1760.47 9174.41 1760.47C9254.28 1760.47 9317.26 1815.77 9317.26 1924.83V2162.91H9218.95V1928.67C9218.95 1881.82 9193.61 1852.63 9149.83 1852.63C9107.59 1852.63 9084.55 1881.82 9069.19 1907.93C9069.96 1913.31 9069.96 1918.68 9069.96 1924.83V2162.91H8971.66V1928.67C8971.66 1881.82 8946.31 1852.63 8902.54 1852.63C8857.99 1852.63 8834.95 1885.66 8820.36 1910.23V2162.91H8722.83ZM9784.93 2099.93C9748.83 2148.31 9688.93 2178.27 9615.97 2178.27C9478.5 2178.27 9400.93 2082.27 9400.93 1969.37C9400.93 1854.94 9473.12 1760.47 9599.84 1760.47C9707.36 1760.47 9778.02 1833.43 9778.02 1934.81C9778.02 1956.31 9774.94 1976.28 9771.87 1989.34H9500.77C9509.98 2061.53 9554.53 2090.71 9615.2 2090.71C9657.44 2090.71 9694.3 2072.28 9715.04 2044.63L9784.93 2099.93ZM9597.54 1840.35C9547.62 1840.35 9514.59 1867.99 9503.84 1918.68H9682.02C9680.48 1879.51 9652.06 1840.35 9597.54 1840.35ZM10186.3 2162.14V1731.29L10075 1794.27L10023.5 1720.54L10189.4 1624.54H10290V2162.14H10186.3ZM10607.1 1609.95C10748.4 1609.95 10814.5 1732.83 10814.5 1894.11C10814.5 2055.39 10748.4 2178.27 10607.1 2178.27C10465.8 2178.27 10399.7 2055.39 10399.7 1894.11C10399.7 1732.83 10465.8 1609.95 10607.1 1609.95ZM10607.1 1705.95C10538.8 1705.95 10505.7 1781.21 10505.7 1894.11C10505.7 2007.77 10538.8 2082.27 10607.1 2082.27C10674.7 2082.27 10707.7 2007 10707.7 1894.11C10707.7 1780.44 10674.7 1705.95 10607.1 1705.95ZM10993.9 1608.41C11071.5 1608.41 11124.4 1664.47 11124.4 1736.67C11124.4 1808.86 11071.5 1864.92 10993.9 1864.92C10915.5 1864.92 10861.8 1808.86 10861.8 1736.67C10861.8 1664.47 10915.5 1608.41 10993.9 1608.41ZM10907.1 2162.14L11301.9 1624.54H11401.7L11006.9 2162.14H10907.1ZM10993.9 1799.64C11027.7 1799.64 11052.3 1773.53 11052.3 1736.67C11052.3 1699.03 11027.7 1673.69 10993.9 1673.69C10959.3 1673.69 10934.7 1699.03 10934.7 1736.67C10934.7 1774.3 10959.3 1799.64 10993.9 1799.64ZM11318 1920.99C11395.5 1920.99 11448.5 1977.05 11448.5 2049.24C11448.5 2121.43 11395.5 2177.5 11318 2177.5C11239.6 2177.5 11185.9 2121.43 11185.9 2049.24C11185.9 1977.05 11239.6 1920.99 11318 1920.99ZM11318 2112.22C11351.8 2112.22 11376.3 2086.11 11376.3 2049.24C11376.3 2011.61 11351.8 1986.27 11318 1986.27C11283.4 1986.27 11258.8 2011.61 11258.8 2049.24C11258.8 2086.87 11283.4 2112.22 11318 2112.22Z" fill="black"/>
<defs>
<clipPath id="clip0_6_198">
<rect width="4155.2" height="3652.81" fill="white"/>
</clipPath>
</defs>
</svg>
